<svg preserveAspectRatio="none" width="100%" height="100%" overflow="visible" style="display: block;" viewBox="0 0 24 24" fill="none" xmlns="http://www.w3.org/2000/svg">
<g id="Group">
<g id="Vector">
</g>
<path id="Vector_2" fill-rule="evenodd" clip-rule="evenodd" d="M12.707 15.7073C12.5195 15.8948 12.2652 16.0001 12 16.0001C11.7348 16.0001 11.4805 15.8948 11.293 15.7073L5.63601 10.0503C5.5405 9.9581 5.46431 9.84775 5.41191 9.72575C5.3595 9.60374 5.33191 9.47252 5.33076 9.33974C5.3296 9.20696 5.3549 9.07529 5.40519 8.95239C5.45547 8.82949 5.52972 8.71784 5.62361 8.62395C5.71751 8.53006 5.82916 8.4558 5.95205 8.40552C6.07495 8.35524 6.20663 8.32994 6.33941 8.33109C6.47219 8.33225 6.60341 8.35983 6.72541 8.41224C6.84742 8.46465 6.95776 8.54083 7.05001 8.63634L12 13.5863L16.95 8.63634C17.1386 8.45418 17.3912 8.35339 17.6534 8.35567C17.9156 8.35795 18.1664 8.46312 18.3518 8.64852C18.5372 8.83393 18.6424 9.08474 18.6447 9.34694C18.647 9.60914 18.5462 9.86174 18.364 10.0503L12.707 15.7073Z" fill="var(--fill-0, #808080)"/>
</g>
</svg>
