<svg width="339" height="264" viewBox="0 0 339 264" fill="none" xmlns="http://www.w3.org/2000/svg">
<path d="M163.566 32C145.357 32 127.557 37.4796 112.417 47.7458C97.2767 58.0121 85.4764 72.6038 78.5081 89.676C71.5398 106.748 69.7166 125.534 73.269 143.657C76.8214 161.781 85.5899 178.429 98.4656 191.495L163.566 125.43V32Z" fill="#54B7EC" fill-opacity="0.26"/>
<path d="M98.4656 191.495C107.015 200.171 117.164 207.053 128.334 211.748C139.504 216.444 151.476 218.86 163.566 218.86C175.656 218.86 187.628 216.444 198.798 211.748C209.968 207.053 220.118 200.171 228.667 191.495L163.566 125.43L98.4656 191.495Z" fill="#54B7EC" fill-opacity="0.42"/>
<path d="M228.667 191.495C239.145 180.862 246.939 167.819 251.387 153.475C255.835 139.131 256.805 123.909 254.216 109.103L163.566 125.43L228.667 191.495Z" fill="#54B7EC" fill-opacity="0.61"/>
<mask id="path-4-inside-1_171_203" fill="white">
<path d="M254.275 109.446C251.597 93.7955 245.032 79.0968 235.199 66.738L163.566 125.43L254.275 109.446Z"/>
</mask>
<path d="M254.275 109.446C251.597 93.7955 245.032 79.0968 235.199 66.738L163.566 125.43L254.275 109.446Z" fill="#54B7EC" fill-opacity="0.75" stroke="#7EC8F0" stroke-width="0.909296" mask="url(#path-4-inside-1_171_203)"/>
<path d="M235.149 66.6753C226.46 55.7729 215.464 46.9951 202.976 40.9928C190.489 34.9904 176.83 31.9174 163.013 32.0017L163.566 125.43L235.149 66.6753Z" fill="#54B7EC" fill-opacity="0.9"/>
<path d="M23.7336 45.3936L23.8758 44.4932L30.7176 35.8683H31.3811L31.1382 37.3789H30.6465L25.1435 44.3214V44.3984H32.2341L32.0682 45.3936H23.7336ZM28.9583 48L29.4381 45.1033L29.5092 44.7005L30.9723 35.8683H32.0268L30.0127 48H28.9583ZM37.7653 48.1659C36.9123 48.1659 36.2251 47.921 35.7039 47.4313C35.1826 46.9377 34.841 46.2269 34.6791 45.2988C34.5172 44.3668 34.5428 43.2453 34.7561 41.9342C34.9693 40.631 35.3129 39.5153 35.7868 38.5873C36.2607 37.6553 36.8392 36.9425 37.5224 36.4489C38.2096 35.9513 38.9777 35.7025 39.8267 35.7025C40.6718 35.7025 41.357 35.9513 41.8822 36.4489C42.4075 36.9425 42.755 37.6553 42.9248 38.5873C43.0986 39.5153 43.0768 40.631 42.8596 41.9342C42.6385 43.2413 42.291 44.3609 41.8171 45.2929C41.3432 46.2209 40.7607 46.9318 40.0696 47.4254C39.3825 47.919 38.6144 48.1659 37.7653 48.1659ZM37.9134 47.1707C38.8454 47.1707 39.653 46.7165 40.3362 45.8082C41.0233 44.9 41.5051 43.6086 41.7815 41.9342C41.9632 40.8403 42.0007 39.9004 41.8941 39.1145C41.7914 38.3286 41.5525 37.7264 41.1773 37.3078C40.8022 36.8892 40.3046 36.6799 39.6846 36.6799C38.7565 36.6799 37.9509 37.138 37.2677 38.0542C36.5845 38.9664 36.1047 40.2597 35.8283 41.9342C35.6466 43.0281 35.6071 43.966 35.7098 44.7479C35.8125 45.5298 36.0494 46.1301 36.4206 46.5487C36.7918 46.9634 37.2894 47.1707 37.9134 47.1707ZM50.7737 45.749L50.8684 45.1981C50.9514 44.744 51.1113 44.3352 51.3483 43.9719C51.5891 43.6046 51.8932 43.3144 52.2605 43.1011C52.6317 42.8879 53.0503 42.7813 53.5163 42.7813C53.9823 42.7813 54.3634 42.8879 54.6596 43.1011C54.9597 43.3144 55.167 43.6046 55.2816 43.9719C55.4 44.3352 55.4198 44.744 55.3408 45.1981L55.246 45.749C55.167 46.1992 55.0071 46.6079 54.7662 46.9752C54.5293 47.3385 54.2272 47.6288 53.8599 47.846C53.4926 48.0592 53.078 48.1659 52.6159 48.1659C52.1499 48.1659 51.7649 48.0592 51.4608 47.846C51.1607 47.6288 50.9514 47.3385 50.8329 46.9752C50.7144 46.6079 50.6947 46.1992 50.7737 45.749ZM51.7985 45.1981L51.7037 45.749C51.6247 46.1953 51.6681 46.5763 51.834 46.8923C52.0038 47.2043 52.3079 47.3602 52.7462 47.3602C53.1727 47.3602 53.5203 47.2043 53.7888 46.8923C54.0573 46.5763 54.2311 46.1953 54.3101 45.749L54.4049 45.1981C54.4878 44.7519 54.4463 44.3727 54.2805 44.0608C54.1146 43.7448 53.8145 43.5869 53.3801 43.5869C52.9536 43.5869 52.6041 43.7448 52.3316 44.0608C52.0591 44.3727 51.8814 44.7519 51.7985 45.1981ZM45.8392 38.6702L45.9222 38.1193C45.9933 37.6652 46.1493 37.2565 46.3901 36.8931C46.631 36.5298 46.9371 36.2415 47.3083 36.0283C47.6835 35.8111 48.1021 35.7025 48.5641 35.7025C49.0301 35.7025 49.4092 35.8111 49.7015 36.0283C49.9977 36.2415 50.203 36.5298 50.3175 36.8931C50.436 37.2565 50.4617 37.6652 50.3945 38.1193L50.3057 38.6702C50.2386 39.1244 50.0845 39.5351 49.8436 39.9024C49.6027 40.2657 49.2967 40.554 48.9255 40.7672C48.5582 40.9805 48.1416 41.0871 47.6756 41.0871C47.2096 41.0871 46.8285 40.9805 46.5323 40.7672C46.2361 40.554 46.0288 40.2657 45.9103 39.9024C45.7919 39.5351 45.7682 39.1244 45.8392 38.6702ZM46.8581 38.1193L46.7693 38.6702C46.6982 39.1204 46.7456 39.5015 46.9114 39.8135C47.0773 40.1255 47.3774 40.2815 47.8118 40.2815C48.2383 40.2815 48.5878 40.1255 48.8603 39.8135C49.1328 39.5015 49.3046 39.1204 49.3757 38.6702L49.4645 38.1193C49.5317 37.6731 49.4843 37.294 49.3224 36.982C49.1644 36.6661 48.8662 36.5081 48.4279 36.5081C48.0014 36.5081 47.6499 36.6661 47.3735 36.982C47.097 37.294 46.9253 37.6731 46.8581 38.1193ZM44.9744 48L54.9676 35.8683H56.0753L46.0821 48H44.9744Z" fill="black"/>
<path d="M2.21785 62.113C1.91862 62.113 1.65492 62.0549 1.42673 61.9386C1.19855 61.8203 1.02849 61.6502 0.916545 61.4285C0.806758 61.2046 0.77662 60.9333 0.826132 60.6147C0.869186 60.3693 0.950988 60.1627 1.07154 59.9948C1.19424 59.8269 1.34924 59.6891 1.53652 59.5815C1.7238 59.4717 1.93907 59.3856 2.18233 59.3231C2.42558 59.2607 2.69036 59.2133 2.97667 59.1811C3.25652 59.1466 3.49547 59.1165 3.69351 59.0906C3.89156 59.0648 4.04548 59.0239 4.15527 58.9679C4.26505 58.912 4.33071 58.8216 4.35224 58.6967L4.37161 58.5805C4.42758 58.2425 4.37592 57.9766 4.21662 57.7829C4.05732 57.587 3.79038 57.489 3.41582 57.489C3.05847 57.489 2.74848 57.5687 2.48586 57.728C2.22538 57.8851 2.03164 58.0692 1.90463 58.2802L1.39444 58.0832C1.54944 57.8119 1.73995 57.5956 1.96598 57.4341C2.19201 57.2705 2.43419 57.1532 2.69251 57.0822C2.95084 57.009 3.20593 56.9724 3.45779 56.9724C3.64723 56.9724 3.8399 56.9972 4.03579 57.0467C4.23169 57.0962 4.40713 57.1823 4.56212 57.305C4.71927 57.4255 4.83444 57.5945 4.90763 57.8119C4.98297 58.0272 4.99374 58.3006 4.93992 58.6321L4.37807 62H3.8033L3.93569 61.2153H3.90017C3.80976 61.3617 3.6849 61.5038 3.5256 61.6416C3.36846 61.7793 3.1801 61.8924 2.96052 61.9806C2.74095 62.0689 2.49339 62.113 2.21785 62.113ZM2.36315 61.5867C2.66883 61.5867 2.94545 61.5189 3.19301 61.3833C3.44273 61.2476 3.64723 61.0679 3.80653 60.844C3.96798 60.618 4.07131 60.3693 4.11652 60.0981L4.23599 59.3813C4.18863 59.4222 4.11114 59.4588 4.0035 59.491C3.89802 59.5233 3.77854 59.5524 3.64508 59.5782C3.51376 59.6019 3.38137 59.6224 3.24791 59.6396C3.11659 59.6568 3.00035 59.6719 2.89917 59.6848C2.61286 59.7192 2.36315 59.773 2.15004 59.8462C1.93907 59.9194 1.77009 60.0206 1.64308 60.1498C1.51607 60.2768 1.43642 60.4404 1.40413 60.6406C1.35462 60.942 1.42027 61.1755 1.6011 61.3413C1.78408 61.5049 2.0381 61.5867 2.36315 61.5867ZM9.37177 60.1046L9.88518 57.0402H10.46L9.63332 62H9.05855L9.19417 61.1766H9.15219C8.9972 61.4306 8.77763 61.6427 8.49347 61.8127C8.21147 61.9806 7.88857 62.0646 7.52476 62.0646C7.20832 62.0646 6.93815 61.9957 6.71427 61.8579C6.49255 61.718 6.33432 61.5135 6.23961 61.2444C6.14489 60.9753 6.12982 60.6449 6.1944 60.2531L6.73365 57.0402H7.30842L6.77885 60.2176C6.71643 60.6051 6.77885 60.9172 6.96614 61.154C7.15558 61.3886 7.42897 61.506 7.78631 61.506C8.01019 61.506 8.23407 61.4521 8.45795 61.3445C8.68398 61.2369 8.87988 61.0797 9.04564 60.8731C9.21355 60.6643 9.32226 60.4081 9.37177 60.1046ZM13.9352 57.0402L13.8545 57.5407H11.4844L11.5683 57.0402H13.9352ZM12.5015 55.8519H13.0795L12.2722 60.7052C12.2378 60.9118 12.2464 61.0743 12.2981 61.1927C12.3497 61.309 12.4294 61.3919 12.537 61.4414C12.6447 61.4887 12.7631 61.5124 12.8922 61.5124C12.9676 61.5124 13.0321 61.5081 13.086 61.4995C13.1419 61.4887 13.1914 61.478 13.2345 61.4672L13.2765 61.9871C13.214 62.0086 13.1398 62.028 13.0537 62.0452C12.9676 62.0646 12.8642 62.0743 12.7437 62.0743C12.5327 62.0743 12.3379 62.028 12.1592 61.9354C11.9806 61.8429 11.8449 61.7051 11.7524 61.5221C11.6598 61.3391 11.6351 61.112 11.6781 60.8408L12.5015 55.8519ZM16.311 62.1033C15.8761 62.1033 15.5102 61.9935 15.2131 61.774C14.916 61.5522 14.7061 61.2455 14.5834 60.8537C14.4607 60.4619 14.4403 60.0098 14.5221 59.4975C14.6039 58.9981 14.7664 58.5589 15.0097 58.1801C15.2551 57.799 15.5564 57.503 15.9138 57.2921C16.2711 57.079 16.6597 56.9724 17.0795 56.9724C17.5165 56.9724 17.8824 57.0833 18.1773 57.305C18.4744 57.5267 18.6843 57.8335 18.807 58.2253C18.9319 58.617 18.9534 59.0702 18.8716 59.5847C18.7898 60.082 18.6262 60.52 18.3808 60.8989C18.1354 61.2756 17.834 61.5705 17.4766 61.7837C17.1214 61.9968 16.7329 62.1033 16.311 62.1033ZM16.3174 61.577C16.6705 61.577 16.9848 61.4834 17.2603 61.2961C17.538 61.1066 17.7673 60.8548 17.9481 60.5405C18.1289 60.224 18.2505 59.8764 18.313 59.4975C18.3711 59.1358 18.3646 58.8033 18.2936 58.4997C18.2225 58.1962 18.0859 57.9529 17.8835 57.77C17.6811 57.587 17.4121 57.4955 17.0762 57.4955C16.7254 57.4955 16.4111 57.5913 16.1334 57.7829C15.8557 57.9723 15.6264 58.2263 15.4456 58.5449C15.2648 58.8614 15.1442 59.208 15.0839 59.5847C15.0237 59.9485 15.028 60.2811 15.0968 60.5825C15.1679 60.8838 15.3046 61.1249 15.5069 61.3058C15.7114 61.4866 15.9816 61.577 16.3174 61.577ZM22.2903 62L23.117 57.0402H23.6756L23.5464 57.8023H23.5981C23.7423 57.5461 23.9425 57.3448 24.1987 57.1984C24.4548 57.0499 24.7455 56.9756 25.0705 56.9756C25.4106 56.9756 25.6776 57.0564 25.8713 57.2178C26.0651 57.3771 26.1942 57.5967 26.2588 57.8765H26.3008C26.4558 57.601 26.6743 57.3825 26.9563 57.221C27.2383 57.0574 27.5601 56.9756 27.9218 56.9756C28.3803 56.9756 28.7193 57.1209 28.9389 57.4115C29.1585 57.7022 29.222 58.1241 29.1294 58.6773L28.574 62H27.9993L28.5546 58.6773C28.6171 58.2855 28.5665 57.9917 28.4029 57.7958C28.2393 57.5999 27.9939 57.502 27.6667 57.502C27.2878 57.502 26.9746 57.6182 26.727 57.8507C26.4816 58.081 26.3298 58.3759 26.2717 58.7354L25.726 62H25.1383L25.7034 58.6257C25.7572 58.2898 25.7088 58.0186 25.5581 57.8119C25.4096 57.6053 25.1652 57.502 24.8251 57.502C24.5948 57.502 24.3784 57.559 24.1761 57.6731C23.9759 57.785 23.8058 57.9411 23.6659 58.1413C23.5281 58.3394 23.4377 58.5665 23.3947 58.8226L22.8651 62H22.2903ZM31.468 62.113C31.1688 62.113 30.9051 62.0549 30.6769 61.9386C30.4487 61.8203 30.2787 61.6502 30.1667 61.4285C30.057 61.2046 30.0268 60.9333 30.0763 60.6147C30.1194 60.3693 30.2012 60.1627 30.3217 59.9948C30.4444 59.8269 30.5994 59.6891 30.7867 59.5815C30.974 59.4717 31.1893 59.3856 31.4325 59.3231C31.6758 59.2607 31.9406 59.2133 32.2269 59.1811C32.5067 59.1466 32.7457 59.1165 32.9437 59.0906C33.1418 59.0648 33.2957 59.0239 33.4055 58.9679C33.5152 58.912 33.5809 58.8216 33.6024 58.6967L33.6218 58.5805C33.6778 58.2425 33.6261 57.9766 33.4668 57.7829C33.3075 57.587 33.0406 57.489 32.666 57.489C32.3087 57.489 31.9987 57.5687 31.736 57.728C31.4756 57.8851 31.2818 58.0692 31.1548 58.2802L30.6446 58.0832C30.7996 57.8119 30.9901 57.5956 31.2162 57.4341C31.4422 57.2705 31.6844 57.1532 31.9427 57.0822C32.201 57.009 32.4561 56.9724 32.708 56.9724C32.8974 56.9724 33.0901 56.9972 33.286 57.0467C33.4819 57.0962 33.6573 57.1823 33.8123 57.305C33.9695 57.4255 34.0846 57.5945 34.1578 57.8119C34.2332 58.0272 34.2439 58.3006 34.1901 58.6321L33.6283 62H33.0535L33.1859 61.2153H33.1504C33.06 61.3617 32.9351 61.5038 32.7758 61.6416C32.6187 61.7793 32.4303 61.8924 32.2107 61.9806C31.9911 62.0689 31.7436 62.113 31.468 62.113ZM31.6133 61.5867C31.919 61.5867 32.1956 61.5189 32.4432 61.3833C32.6929 61.2476 32.8974 61.0679 33.0567 60.844C33.2182 60.618 33.3215 60.3693 33.3667 60.0981L33.4862 59.3813C33.4388 59.4222 33.3613 59.4588 33.2537 59.491C33.1482 59.5233 33.0287 59.5524 32.8953 59.5782C32.764 59.6019 32.6316 59.6224 32.4981 59.6396C32.3668 59.6568 32.2505 59.6719 32.1494 59.6848C31.8631 59.7192 31.6133 59.773 31.4002 59.8462C31.1893 59.9194 31.0203 60.0206 30.8933 60.1498C30.7663 60.2768 30.6866 60.4404 30.6543 60.6406C30.6048 60.942 30.6705 61.1755 30.8513 61.3413C31.0343 61.5049 31.2883 61.5867 31.6133 61.5867ZM35.1637 62L35.9903 57.0402H36.5683L35.7417 62H35.1637ZM36.4876 56.1781C36.367 56.1781 36.2648 56.1372 36.1808 56.0554C36.099 55.9735 36.0592 55.8745 36.0613 55.7583C36.0656 55.6485 36.1098 55.5538 36.1937 55.4741C36.2798 55.3923 36.381 55.3514 36.4973 55.3514C36.6178 55.3514 36.7201 55.3934 36.804 55.4774C36.888 55.5592 36.9278 55.6582 36.9235 55.7744C36.9213 55.8842 36.8772 55.9789 36.7911 56.0586C36.705 56.1382 36.6038 56.1781 36.4876 56.1781ZM38.3499 58.9001L37.8365 62H37.2617L38.0884 57.0402H38.647L38.5178 57.8184H38.5695C38.7245 57.5644 38.9387 57.361 39.2121 57.2081C39.4876 57.0531 39.8073 56.9756 40.1711 56.9756C40.5026 56.9756 40.7825 57.0456 41.0106 57.1855C41.241 57.3233 41.4046 57.5267 41.5015 57.7958C41.6005 58.0649 41.6177 58.3953 41.5531 58.7871L41.0139 62H40.4391L40.9687 58.8226C41.0354 58.4179 40.9762 58.0972 40.7911 57.8604C40.6081 57.6214 40.325 57.502 39.9418 57.502C39.6814 57.502 39.4392 57.5579 39.2153 57.6699C38.9936 57.7818 38.8063 57.9433 38.6534 58.1542C38.5006 58.363 38.3994 58.6117 38.3499 58.9001ZM45.3077 57.0402L45.227 57.5407H42.8568L42.9408 57.0402H45.3077ZM43.874 55.8519H44.452L43.6447 60.7052C43.6103 60.9118 43.6189 61.0743 43.6706 61.1927C43.7222 61.309 43.8019 61.3919 43.9095 61.4414C44.0171 61.4887 44.1355 61.5124 44.2647 61.5124C44.34 61.5124 44.4046 61.5081 44.4584 61.4995C44.5144 61.4887 44.5639 61.478 44.607 61.4672L44.649 61.9871C44.5865 62.0086 44.5123 62.028 44.4262 62.0452C44.34 62.0646 44.2367 62.0743 44.1162 62.0743C43.9052 62.0743 43.7104 62.028 43.5317 61.9354C43.353 61.8429 43.2174 61.7051 43.1249 61.5221C43.0323 61.3391 43.0075 61.112 43.0506 60.8408L43.874 55.8519ZM47.7254 62.1033C47.2626 62.1033 46.8805 61.9957 46.5791 61.7804C46.2777 61.563 46.0668 61.2627 45.9462 60.8795C45.8257 60.4942 45.8074 60.0507 45.8913 59.5492C45.9753 59.0497 46.141 58.6063 46.3886 58.2188C46.6362 57.8292 46.9418 57.5246 47.3056 57.305C47.6694 57.0833 48.0645 56.9724 48.4907 56.9724C48.7598 56.9724 49.0116 57.0219 49.2463 57.1209C49.4809 57.2178 49.6801 57.3674 49.8437 57.5698C50.0094 57.77 50.1246 58.0229 50.1892 58.3286C50.2537 58.6321 50.2516 58.9916 50.1827 59.4071L50.1375 59.6912H46.2627L46.3434 59.1843H49.6338C49.6876 58.8657 49.6725 58.5794 49.5886 58.3254C49.5046 58.0713 49.3615 57.8701 49.1591 57.7215C48.9589 57.5708 48.7103 57.4955 48.4132 57.4955C48.1097 57.4955 47.8223 57.5805 47.551 57.7506C47.282 57.9207 47.0538 58.1424 46.8665 58.4158C46.6814 58.687 46.5619 58.9765 46.5081 59.2844L46.4435 59.6654C46.3746 60.0852 46.3832 60.4371 46.4693 60.7213C46.5554 61.0033 46.7115 61.2164 46.9375 61.3607C47.1636 61.5049 47.4531 61.577 47.8061 61.577C48.0429 61.577 48.2571 61.5404 48.4487 61.4672C48.6403 61.394 48.8071 61.2961 48.9492 61.1734C49.0913 61.0485 49.2054 60.9118 49.2915 60.7633L49.8049 60.9409C49.6951 61.1497 49.5401 61.3424 49.3399 61.5189C49.1419 61.6954 48.9062 61.8375 48.6328 61.9451C48.3615 62.0506 48.0591 62.1033 47.7254 62.1033ZM52.1048 58.9001L51.5914 62H51.0166L51.8432 57.0402H52.4019L52.2727 57.8184H52.3244C52.4794 57.5644 52.6935 57.361 52.9669 57.2081C53.2425 57.0531 53.5622 56.9756 53.926 56.9756C54.2575 56.9756 54.5373 57.0456 54.7655 57.1855C54.9958 57.3233 55.1595 57.5267 55.2563 57.7958C55.3553 58.0649 55.3726 58.3953 55.308 58.7871L54.7687 62H54.194L54.7235 58.8226C54.7903 58.4179 54.7311 58.0972 54.5459 57.8604C54.363 57.6214 54.0799 57.502 53.6967 57.502C53.4362 57.502 53.194 57.5579 52.9702 57.6699C52.7484 57.7818 52.5612 57.9433 52.4083 58.1542C52.2555 58.363 52.1543 58.6117 52.1048 58.9001ZM57.6547 62.113C57.3555 62.113 57.0918 62.0549 56.8636 61.9386C56.6354 61.8203 56.4653 61.6502 56.3534 61.4285C56.2436 61.2046 56.2135 60.9333 56.263 60.6147C56.306 60.3693 56.3878 60.1627 56.5084 59.9948C56.6311 59.8269 56.7861 59.6891 56.9734 59.5815C57.1606 59.4717 57.3759 59.3856 57.6192 59.3231C57.8624 59.2607 58.1272 59.2133 58.4135 59.1811C58.6934 59.1466 58.9323 59.1165 59.1304 59.0906C59.3284 59.0648 59.4823 59.0239 59.5921 58.9679C59.7019 58.912 59.7676 58.8216 59.7891 58.6967L59.8085 58.5805C59.8644 58.2425 59.8128 57.9766 59.6535 57.7829C59.4942 57.587 59.2272 57.489 58.8527 57.489C58.4953 57.489 58.1853 57.5687 57.9227 57.728C57.6622 57.8851 57.4685 58.0692 57.3415 58.2802L56.8313 58.0832C56.9863 57.8119 57.1768 57.5956 57.4028 57.4341C57.6289 57.2705 57.871 57.1532 58.1294 57.0822C58.3877 57.009 58.6428 56.9724 58.8946 56.9724C59.0841 56.9724 59.2767 56.9972 59.4726 57.0467C59.6685 57.0962 59.844 57.1823 59.999 57.305C60.1561 57.4255 60.2713 57.5945 60.3445 57.8119C60.4198 58.0272 60.4306 58.3006 60.3768 58.6321L59.8149 62H59.2401L59.3725 61.2153H59.337C59.2466 61.3617 59.1217 61.5038 58.9624 61.6416C58.8053 61.7793 58.6169 61.8924 58.3974 61.9806C58.1778 62.0689 57.9302 62.113 57.6547 62.113ZM57.8 61.5867C58.1057 61.5867 58.3823 61.5189 58.6299 61.3833C58.8796 61.2476 59.0841 61.0679 59.2434 60.844C59.4048 60.618 59.5082 60.3693 59.5534 60.0981L59.6728 59.3813C59.6255 59.4222 59.548 59.4588 59.4403 59.491C59.3349 59.5233 59.2154 59.5524 59.0819 59.5782C58.9506 59.6019 58.8182 59.6224 58.6848 59.6396C58.5534 59.6568 58.4372 59.6719 58.336 59.6848C58.0497 59.7192 57.8 59.773 57.5869 59.8462C57.3759 59.9194 57.2069 60.0206 57.0799 60.1498C56.9529 60.2768 56.8733 60.4404 56.841 60.6406C56.7915 60.942 56.8571 61.1755 57.0379 61.3413C57.2209 61.5049 57.4749 61.5867 57.8 61.5867ZM62.432 58.9001L61.9186 62H61.3439L62.1705 57.0402H62.7291L62.6 57.8184H62.6516C62.8066 57.5644 63.0208 57.361 63.2942 57.2081C63.5697 57.0531 63.8894 56.9756 64.2532 56.9756C64.5847 56.9756 64.8646 57.0456 65.0928 57.1855C65.3231 57.3233 65.4867 57.5267 65.5836 57.7958C65.6826 58.0649 65.6998 58.3953 65.6352 58.7871L65.096 62H64.5212L65.0508 58.8226C65.1175 58.4179 65.0583 58.0972 64.8732 57.8604C64.6902 57.6214 64.4071 57.502 64.024 57.502C63.7635 57.502 63.5213 57.5579 63.2974 57.6699C63.0757 57.7818 62.8884 57.9433 62.7356 58.1542C62.5827 58.363 62.4816 58.6117 62.432 58.9001ZM68.5341 62.1033C68.0864 62.1033 67.7172 61.9925 67.4266 61.7707C67.1359 61.549 66.9325 61.2455 66.8163 60.8602C66.7022 60.4727 66.686 60.0335 66.7678 59.5427C66.8496 59.0433 67.0143 58.6009 67.2619 58.2156C67.5094 57.8281 67.8151 57.5246 68.1789 57.305C68.5449 57.0833 68.9442 56.9724 69.3769 56.9724C69.7106 56.9724 70.0012 57.037 70.2487 57.1661C70.4963 57.2931 70.6879 57.4729 70.8235 57.7054C70.9591 57.9357 71.0237 58.2048 71.0172 58.5126H70.436C70.4209 58.2263 70.3165 57.9852 70.1228 57.7893C69.9312 57.5934 69.66 57.4955 69.3091 57.4955C68.9883 57.4955 68.6913 57.5816 68.4179 57.7538C68.1445 57.9239 67.9131 58.1618 67.7236 58.4674C67.5363 58.771 67.4104 59.1229 67.3458 59.5233C67.2769 59.9259 67.2834 60.2822 67.3652 60.5921C67.447 60.9 67.5934 61.1411 67.8043 61.3154C68.0175 61.4898 68.2866 61.577 68.6116 61.577C68.8333 61.577 69.0421 61.5361 69.238 61.4543C69.4339 61.3703 69.6072 61.2519 69.7579 61.0991C69.9086 60.9441 70.0238 60.7622 70.1034 60.5534H70.6846C70.5878 60.8548 70.4349 61.1217 70.2261 61.3542C70.0195 61.5867 69.7719 61.7697 69.4834 61.9031C69.195 62.0366 68.8785 62.1033 68.5341 62.1033ZM73.6634 62.1033C73.2006 62.1033 72.8185 61.9957 72.5171 61.7804C72.2157 61.563 72.0048 61.2627 71.8842 60.8795C71.7637 60.4942 71.7454 60.0507 71.8293 59.5492C71.9133 59.0497 72.079 58.6063 72.3266 58.2188C72.5742 57.8292 72.8798 57.5246 73.2437 57.305C73.6075 57.0833 74.0025 56.9724 74.4287 56.9724C74.6978 56.9724 74.9497 57.0219 75.1843 57.1209C75.4189 57.2178 75.6181 57.3674 75.7817 57.5698C75.9474 57.77 76.0626 58.0229 76.1272 58.3286C76.1918 58.6321 76.1896 58.9916 76.1207 59.4071L76.0755 59.6912H72.2007L72.2814 59.1843H75.5718C75.6256 58.8657 75.6105 58.5794 75.5266 58.3254C75.4426 58.0713 75.2995 57.8701 75.0971 57.7215C74.8969 57.5708 74.6483 57.4955 74.3512 57.4955C74.0477 57.4955 73.7603 57.5805 73.4891 57.7506C73.22 57.9207 72.9918 58.1424 72.8045 58.4158C72.6194 58.687 72.4999 58.9765 72.4461 59.2844L72.3815 59.6654C72.3126 60.0852 72.3212 60.4371 72.4073 60.7213C72.4934 61.0033 72.6495 61.2164 72.8755 61.3607C73.1016 61.5049 73.3911 61.577 73.7442 61.577C73.9809 61.577 74.1951 61.5404 74.3867 61.4672C74.5783 61.394 74.7452 61.2961 74.8872 61.1734C75.0293 61.0485 75.1434 60.9118 75.2295 60.7633L75.7429 60.9409C75.6331 61.1497 75.4781 61.3424 75.2779 61.5189C75.0799 61.6954 74.8442 61.8375 74.5708 61.9451C74.2995 62.0506 73.9971 62.1033 73.6634 62.1033Z" fill="black"/>
<path d="M147.734 245.394L147.876 244.493L154.718 235.868H155.381L155.138 237.379H154.647L149.143 244.321V244.398H156.234L156.068 245.394H147.734ZM152.958 248L153.438 245.103L153.509 244.701L154.972 235.868H156.027L154.013 248H152.958ZM161.765 248.166C160.912 248.166 160.225 247.921 159.704 247.431C159.183 246.938 158.841 246.227 158.679 245.299C158.517 244.367 158.543 243.245 158.756 241.934C158.969 240.631 159.313 239.515 159.787 238.587C160.261 237.655 160.839 236.942 161.522 236.449C162.21 235.951 162.978 235.702 163.827 235.702C164.672 235.702 165.357 235.951 165.882 236.449C166.407 236.942 166.755 237.655 166.925 238.587C167.099 239.515 167.077 240.631 166.86 241.934C166.638 243.241 166.291 244.361 165.817 245.293C165.343 246.221 164.761 246.932 164.07 247.425C163.382 247.919 162.614 248.166 161.765 248.166ZM161.913 247.171C162.845 247.171 163.653 246.717 164.336 245.808C165.023 244.9 165.505 243.609 165.782 241.934C165.963 240.84 166.001 239.9 165.894 239.115C165.791 238.329 165.552 237.726 165.177 237.308C164.802 236.889 164.305 236.68 163.685 236.68C162.757 236.68 161.951 237.138 161.268 238.054C160.585 238.966 160.105 240.26 159.828 241.934C159.647 243.028 159.607 243.966 159.71 244.748C159.812 245.53 160.049 246.13 160.421 246.549C160.792 246.963 161.289 247.171 161.913 247.171ZM174.774 245.749L174.868 245.198C174.951 244.744 175.111 244.335 175.348 243.972C175.589 243.605 175.893 243.314 176.26 243.101C176.632 242.888 177.05 242.781 177.516 242.781C177.982 242.781 178.363 242.888 178.66 243.101C178.96 243.314 179.167 243.605 179.282 243.972C179.4 244.335 179.42 244.744 179.341 245.198L179.246 245.749C179.167 246.199 179.007 246.608 178.766 246.975C178.529 247.339 178.227 247.629 177.86 247.846C177.493 248.059 177.078 248.166 176.616 248.166C176.15 248.166 175.765 248.059 175.461 247.846C175.161 247.629 174.951 247.339 174.833 246.975C174.714 246.608 174.695 246.199 174.774 245.749ZM175.798 245.198L175.704 245.749C175.625 246.195 175.668 246.576 175.834 246.892C176.004 247.204 176.308 247.36 176.746 247.36C177.173 247.36 177.52 247.204 177.789 246.892C178.057 246.576 178.231 246.195 178.31 245.749L178.405 245.198C178.488 244.752 178.446 244.373 178.28 244.061C178.115 243.745 177.814 243.587 177.38 243.587C176.954 243.587 176.604 243.745 176.332 244.061C176.059 244.373 175.881 244.752 175.798 245.198ZM169.839 238.67L169.922 238.119C169.993 237.665 170.149 237.256 170.39 236.893C170.631 236.53 170.937 236.242 171.308 236.028C171.683 235.811 172.102 235.702 172.564 235.702C173.03 235.702 173.409 235.811 173.701 236.028C173.998 236.242 174.203 236.53 174.318 236.893C174.436 237.256 174.462 237.665 174.395 238.119L174.306 238.67C174.239 239.124 174.085 239.535 173.844 239.902C173.603 240.266 173.297 240.554 172.925 240.767C172.558 240.98 172.142 241.087 171.676 241.087C171.21 241.087 170.828 240.98 170.532 240.767C170.236 240.554 170.029 240.266 169.91 239.902C169.792 239.535 169.768 239.124 169.839 238.67ZM170.858 238.119L170.769 238.67C170.698 239.12 170.746 239.502 170.911 239.813C171.077 240.125 171.377 240.281 171.812 240.281C172.238 240.281 172.588 240.125 172.86 239.813C173.133 239.502 173.305 239.12 173.376 238.67L173.465 238.119C173.532 237.673 173.484 237.294 173.322 236.982C173.164 236.666 172.866 236.508 172.428 236.508C172.001 236.508 171.65 236.666 171.373 236.982C171.097 237.294 170.925 237.673 170.858 238.119ZM168.974 248L178.968 235.868H180.075L170.082 248H168.974Z" fill="black"/>
<path d="M117.212 262H116.579L120.082 255.387H120.728L122.036 262H121.403L120.302 256.172H120.26L117.212 262ZM118.09 259.465H121.371L121.28 260.008H118L118.09 259.465ZM122.74 263.86L123.883 257.04H124.442L124.287 257.986H124.354C124.445 257.838 124.562 257.685 124.706 257.528C124.853 257.371 125.035 257.239 125.252 257.134C125.472 257.026 125.734 256.972 126.04 256.972C126.449 256.972 126.788 257.079 127.057 257.292C127.328 257.505 127.518 257.804 127.625 258.19C127.735 258.575 127.747 259.023 127.661 259.533C127.577 260.045 127.417 260.494 127.18 260.88C126.943 261.265 126.653 261.565 126.311 261.78C125.971 261.996 125.599 262.103 125.194 262.103C124.895 262.103 124.652 262.05 124.467 261.942C124.284 261.834 124.144 261.702 124.048 261.545C123.951 261.385 123.881 261.23 123.838 261.08H123.786L123.321 263.86H122.74ZM124.038 259.523C123.973 259.924 123.973 260.279 124.038 260.589C124.102 260.897 124.233 261.139 124.429 261.315C124.625 261.49 124.883 261.577 125.204 261.577C125.533 261.577 125.827 261.487 126.085 261.306C126.343 261.123 126.559 260.876 126.731 260.566C126.903 260.256 127.022 259.909 127.086 259.523C127.146 259.142 127.144 258.799 127.08 258.493C127.015 258.188 126.886 257.945 126.692 257.767C126.498 257.586 126.235 257.495 125.901 257.495C125.578 257.495 125.288 257.583 125.029 257.757C124.773 257.929 124.56 258.168 124.39 258.474C124.22 258.777 124.102 259.127 124.038 259.523ZM128.201 263.86L129.344 257.04H129.903L129.748 257.986H129.815C129.906 257.838 130.023 257.685 130.167 257.528C130.314 257.371 130.496 257.239 130.713 257.134C130.933 257.026 131.195 256.972 131.501 256.972C131.91 256.972 132.249 257.079 132.518 257.292C132.789 257.505 132.979 257.804 133.086 258.19C133.196 258.575 133.208 259.023 133.122 259.533C133.038 260.045 132.878 260.494 132.641 260.88C132.404 261.265 132.115 261.565 131.772 261.78C131.432 261.996 131.06 262.103 130.655 262.103C130.356 262.103 130.114 262.05 129.928 261.942C129.745 261.834 129.606 261.702 129.509 261.545C129.412 261.385 129.342 261.23 129.299 261.08H129.247L128.782 263.86H128.201ZM129.499 259.523C129.434 259.924 129.434 260.279 129.499 260.589C129.564 260.897 129.694 261.139 129.89 261.315C130.086 261.49 130.344 261.577 130.665 261.577C130.994 261.577 131.288 261.487 131.546 261.306C131.805 261.123 132.02 260.876 132.192 260.566C132.364 260.256 132.483 259.909 132.547 259.523C132.607 259.142 132.605 258.799 132.541 258.493C132.476 258.188 132.347 257.945 132.153 257.767C131.96 257.586 131.696 257.495 131.362 257.495C131.039 257.495 130.749 257.583 130.49 257.757C130.234 257.929 130.021 258.168 129.851 258.474C129.681 258.777 129.564 259.127 129.499 259.523ZM135.645 255.387L134.547 262H133.972L135.07 255.387H135.645ZM136.074 262L136.901 257.04H137.479L136.652 262H136.074ZM137.398 256.178C137.277 256.178 137.175 256.137 137.091 256.055C137.009 255.974 136.97 255.875 136.972 255.758C136.976 255.648 137.02 255.554 137.104 255.474C137.19 255.392 137.291 255.351 137.408 255.351C137.528 255.351 137.631 255.393 137.714 255.477C137.798 255.559 137.838 255.658 137.834 255.774C137.832 255.884 137.788 255.979 137.702 256.059C137.615 256.138 137.514 256.178 137.398 256.178ZM139.545 262.113C139.245 262.113 138.982 262.055 138.753 261.939C138.525 261.82 138.355 261.65 138.243 261.428C138.133 261.205 138.103 260.933 138.153 260.615C138.196 260.369 138.278 260.163 138.398 259.995C138.521 259.827 138.676 259.689 138.863 259.581C139.05 259.472 139.266 259.386 139.509 259.323C139.752 259.261 140.017 259.213 140.303 259.181C140.583 259.147 140.822 259.116 141.02 259.091C141.218 259.065 141.372 259.024 141.482 258.968C141.592 258.912 141.657 258.822 141.679 258.697L141.698 258.58C141.754 258.242 141.703 257.977 141.543 257.783C141.384 257.587 141.117 257.489 140.742 257.489C140.385 257.489 140.075 257.569 139.813 257.728C139.552 257.885 139.358 258.069 139.231 258.28L138.721 258.083C138.876 257.812 139.067 257.596 139.293 257.434C139.519 257.271 139.761 257.153 140.019 257.082C140.278 257.009 140.533 256.972 140.784 256.972C140.974 256.972 141.167 256.997 141.362 257.047C141.558 257.096 141.734 257.182 141.889 257.305C142.046 257.426 142.161 257.595 142.234 257.812C142.31 258.027 142.32 258.301 142.267 258.632L141.705 262H141.13L141.262 261.215H141.227C141.136 261.362 141.012 261.504 140.852 261.642C140.695 261.779 140.507 261.892 140.287 261.981C140.068 262.069 139.82 262.113 139.545 262.113ZM139.69 261.587C139.996 261.587 140.272 261.519 140.52 261.383C140.769 261.248 140.974 261.068 141.133 260.844C141.295 260.618 141.398 260.369 141.443 260.098L141.563 259.381C141.515 259.422 141.438 259.459 141.33 259.491C141.225 259.523 141.105 259.552 140.972 259.578C140.84 259.602 140.708 259.622 140.575 259.64C140.443 259.657 140.327 259.672 140.226 259.685C139.94 259.719 139.69 259.773 139.477 259.846C139.266 259.919 139.097 260.021 138.97 260.15C138.843 260.277 138.763 260.44 138.731 260.641C138.681 260.942 138.747 261.176 138.928 261.341C139.111 261.505 139.365 261.587 139.69 261.587ZM144.322 258.9L143.808 262H143.234L144.06 257.04H144.619L144.49 257.818H144.541C144.696 257.564 144.911 257.361 145.184 257.208C145.46 257.053 145.779 256.976 146.143 256.976C146.475 256.976 146.754 257.046 146.983 257.186C147.213 257.323 147.377 257.527 147.473 257.796C147.572 258.065 147.59 258.395 147.525 258.787L146.986 262H146.411L146.941 258.823C147.007 258.418 146.948 258.097 146.763 257.86C146.58 257.621 146.297 257.502 145.914 257.502C145.653 257.502 145.411 257.558 145.187 257.67C144.966 257.782 144.778 257.943 144.625 258.154C144.473 258.363 144.371 258.612 144.322 258.9ZM150.424 262.103C149.976 262.103 149.607 261.992 149.316 261.771C149.026 261.549 148.822 261.245 148.706 260.86C148.592 260.473 148.576 260.034 148.658 259.543C148.739 259.043 148.904 258.601 149.152 258.216C149.399 257.828 149.705 257.525 150.069 257.305C150.435 257.083 150.834 256.972 151.267 256.972C151.6 256.972 151.891 257.037 152.139 257.166C152.386 257.293 152.578 257.473 152.713 257.705C152.849 257.936 152.914 258.205 152.907 258.513H152.326C152.311 258.226 152.206 257.985 152.013 257.789C151.821 257.593 151.55 257.495 151.199 257.495C150.878 257.495 150.581 257.582 150.308 257.754C150.034 257.924 149.803 258.162 149.613 258.467C149.426 258.771 149.3 259.123 149.236 259.523C149.167 259.926 149.173 260.282 149.255 260.592C149.337 260.9 149.483 261.141 149.694 261.315C149.907 261.49 150.176 261.577 150.501 261.577C150.723 261.577 150.932 261.536 151.128 261.454C151.324 261.37 151.497 261.252 151.648 261.099C151.798 260.944 151.914 260.762 151.993 260.553H152.574C152.478 260.855 152.325 261.122 152.116 261.354C151.909 261.587 151.662 261.77 151.373 261.903C151.085 262.037 150.768 262.103 150.424 262.103ZM155.553 262.103C155.09 262.103 154.708 261.996 154.407 261.78C154.106 261.563 153.895 261.263 153.774 260.88C153.654 260.494 153.635 260.051 153.719 259.549C153.803 259.05 153.969 258.606 154.216 258.219C154.464 257.829 154.77 257.525 155.133 257.305C155.497 257.083 155.892 256.972 156.319 256.972C156.588 256.972 156.839 257.022 157.074 257.121C157.309 257.218 157.508 257.367 157.672 257.57C157.837 257.77 157.952 258.023 158.017 258.329C158.082 258.632 158.079 258.992 158.011 259.407L157.965 259.691H154.091L154.171 259.184H157.462C157.515 258.866 157.5 258.579 157.416 258.325C157.332 258.071 157.189 257.87 156.987 257.722C156.787 257.571 156.538 257.495 156.241 257.495C155.938 257.495 155.65 257.581 155.379 257.751C155.11 257.921 154.882 258.142 154.694 258.416C154.509 258.687 154.39 258.977 154.336 259.284L154.271 259.665C154.202 260.085 154.211 260.437 154.297 260.721C154.383 261.003 154.539 261.216 154.765 261.361C154.991 261.505 155.281 261.577 155.634 261.577C155.871 261.577 156.085 261.54 156.277 261.467C156.468 261.394 156.635 261.296 156.777 261.173C156.919 261.049 157.033 260.912 157.119 260.763L157.633 260.941C157.523 261.15 157.368 261.342 157.168 261.519C156.97 261.695 156.734 261.837 156.461 261.945C156.189 262.051 155.887 262.103 155.553 262.103ZM162.823 258.128L162.27 258.27C162.242 258.122 162.191 257.988 162.115 257.87C162.042 257.75 161.936 257.655 161.796 257.586C161.658 257.515 161.477 257.479 161.253 257.479C160.917 257.479 160.628 257.561 160.385 257.725C160.141 257.886 159.999 258.093 159.958 258.345C159.924 258.556 159.968 258.727 160.091 258.858C160.216 258.989 160.425 259.093 160.717 259.168L161.441 259.352C161.841 259.456 162.126 259.617 162.296 259.837C162.468 260.056 162.528 260.334 162.474 260.67C162.427 260.949 162.307 261.197 162.115 261.412C161.926 261.628 161.683 261.797 161.386 261.919C161.091 262.042 160.761 262.103 160.398 262.103C159.909 262.103 159.525 261.994 159.245 261.774C158.967 261.554 158.819 261.238 158.799 260.825L159.377 260.695C159.394 260.988 159.495 261.21 159.678 261.361C159.863 261.511 160.123 261.587 160.459 261.587C160.842 261.587 161.164 261.499 161.424 261.325C161.685 261.151 161.835 260.935 161.873 260.679C161.91 260.477 161.872 260.309 161.76 260.176C161.65 260.042 161.463 259.943 161.198 259.879L160.427 259.685C160.011 259.579 159.717 259.415 159.545 259.191C159.375 258.965 159.318 258.686 159.374 258.354C159.419 258.081 159.533 257.841 159.716 257.634C159.899 257.428 160.131 257.266 160.411 257.15C160.69 257.032 160.996 256.972 161.328 256.972C161.784 256.972 162.132 257.076 162.371 257.282C162.609 257.487 162.76 257.769 162.823 258.128ZM166.79 255.929L166.881 255.387H171.676L171.585 255.929H169.49L168.482 262H167.878L168.886 255.929H166.79ZM173.091 262.103C172.628 262.103 172.246 261.996 171.945 261.78C171.643 261.563 171.432 261.263 171.312 260.88C171.191 260.494 171.173 260.051 171.257 259.549C171.341 259.05 171.507 258.606 171.754 258.219C172.002 257.829 172.307 257.525 172.671 257.305C173.035 257.083 173.43 256.972 173.856 256.972C174.125 256.972 174.377 257.022 174.612 257.121C174.846 257.218 175.046 257.367 175.209 257.57C175.375 257.77 175.49 258.023 175.555 258.329C175.619 258.632 175.617 258.992 175.548 259.407L175.503 259.691H171.628L171.709 259.184H174.999C175.053 258.866 175.038 258.579 174.954 258.325C174.87 258.071 174.727 257.87 174.525 257.722C174.324 257.571 174.076 257.495 173.779 257.495C173.475 257.495 173.188 257.581 172.917 257.751C172.647 257.921 172.419 258.142 172.232 258.416C172.047 258.687 171.927 258.977 171.874 259.284L171.809 259.665C171.74 260.085 171.749 260.437 171.835 260.721C171.921 261.003 172.077 261.216 172.303 261.361C172.529 261.505 172.819 261.577 173.172 261.577C173.408 261.577 173.623 261.54 173.814 261.467C174.006 261.394 174.173 261.296 174.315 261.173C174.457 261.049 174.571 260.912 174.657 260.763L175.17 260.941C175.061 261.15 174.906 261.342 174.705 261.519C174.507 261.695 174.272 261.837 173.998 261.945C173.727 262.051 173.425 262.103 173.091 262.103ZM178.307 262.103C177.859 262.103 177.49 261.992 177.199 261.771C176.908 261.549 176.705 261.245 176.589 260.86C176.475 260.473 176.459 260.034 176.54 259.543C176.622 259.043 176.787 258.601 177.034 258.216C177.282 257.828 177.588 257.525 177.951 257.305C178.317 257.083 178.717 256.972 179.149 256.972C179.483 256.972 179.774 257.037 180.021 257.166C180.269 257.293 180.46 257.473 180.596 257.705C180.732 257.936 180.796 258.205 180.79 258.513H180.209C180.193 258.226 180.089 257.985 179.895 257.789C179.704 257.593 179.432 257.495 179.082 257.495C178.761 257.495 178.464 257.582 178.19 257.754C177.917 257.924 177.686 258.162 177.496 258.467C177.309 258.771 177.183 259.123 177.118 259.523C177.049 259.926 177.056 260.282 177.138 260.592C177.22 260.9 177.366 261.141 177.577 261.315C177.79 261.49 178.059 261.577 178.384 261.577C178.606 261.577 178.815 261.536 179.011 261.454C179.206 261.37 179.38 261.252 179.53 261.099C179.681 260.944 179.796 260.762 179.876 260.553H180.457C180.36 260.855 180.207 261.122 179.999 261.354C179.792 261.587 179.544 261.77 179.256 261.903C178.968 262.037 178.651 262.103 178.307 262.103ZM182.532 258.9L182.018 262H181.444L182.542 255.387H183.116L182.716 257.818H182.768C182.923 257.56 183.136 257.356 183.407 257.205C183.678 257.052 184.002 256.976 184.379 256.976C184.712 256.976 184.994 257.045 185.225 257.182C185.457 257.32 185.622 257.523 185.719 257.793C185.818 258.062 185.835 258.393 185.771 258.787L185.231 262H184.653L185.183 258.823C185.25 258.414 185.189 258.092 185.002 257.857C184.817 257.62 184.533 257.502 184.15 257.502C183.887 257.502 183.642 257.558 183.413 257.67C183.187 257.782 182.996 257.943 182.839 258.154C182.684 258.363 182.581 258.612 182.532 258.9ZM187.833 258.9L187.32 262H186.745L187.572 257.04H188.13L188.001 257.818H188.053C188.208 257.564 188.422 257.361 188.695 257.208C188.971 257.053 189.29 256.976 189.654 256.976C189.986 256.976 190.266 257.046 190.494 257.186C190.724 257.323 190.888 257.527 190.985 257.796C191.084 258.065 191.101 258.395 191.036 258.787L190.497 262H189.922L190.452 258.823C190.519 258.418 190.459 258.097 190.274 257.86C190.091 257.621 189.808 257.502 189.425 257.502C189.165 257.502 188.922 257.558 188.698 257.67C188.477 257.782 188.289 257.943 188.137 258.154C187.984 258.363 187.883 258.612 187.833 258.9ZM192.017 262L192.844 257.04H193.422L192.595 262H192.017ZM193.341 256.178C193.22 256.178 193.118 256.137 193.034 256.055C192.952 255.974 192.913 255.875 192.915 255.758C192.919 255.648 192.963 255.554 193.047 255.474C193.133 255.392 193.234 255.351 193.351 255.351C193.471 255.351 193.574 255.393 193.657 255.477C193.741 255.559 193.781 255.658 193.777 255.774C193.775 255.884 193.731 255.979 193.645 256.059C193.558 256.138 193.457 256.178 193.341 256.178ZM196.04 262.103C195.592 262.103 195.223 261.992 194.932 261.771C194.642 261.549 194.438 261.245 194.322 260.86C194.208 260.473 194.192 260.034 194.273 259.543C194.355 259.043 194.52 258.601 194.767 258.216C195.015 257.828 195.321 257.525 195.684 257.305C196.05 257.083 196.45 256.972 196.882 256.972C197.216 256.972 197.507 257.037 197.754 257.166C198.002 257.293 198.193 257.473 198.329 257.705C198.465 257.936 198.529 258.205 198.523 258.513H197.942C197.927 258.226 197.822 257.985 197.628 257.789C197.437 257.593 197.166 257.495 196.815 257.495C196.494 257.495 196.197 257.582 195.923 257.754C195.65 257.924 195.419 258.162 195.229 258.467C195.042 258.771 194.916 259.123 194.851 259.523C194.783 259.926 194.789 260.282 194.871 260.592C194.953 260.9 195.099 261.141 195.31 261.315C195.523 261.49 195.792 261.577 196.117 261.577C196.339 261.577 196.548 261.536 196.744 261.454C196.94 261.37 197.113 261.252 197.263 261.099C197.414 260.944 197.529 260.762 197.609 260.553H198.19C198.093 260.855 197.941 261.122 197.732 261.354C197.525 261.587 197.277 261.77 196.989 261.903C196.701 262.037 196.384 262.103 196.04 262.103ZM199.183 262L200.01 257.04H200.588L199.761 262H199.183ZM200.507 256.178C200.386 256.178 200.284 256.137 200.2 256.055C200.118 255.974 200.079 255.875 200.081 255.758C200.085 255.648 200.129 255.554 200.213 255.474C200.299 255.392 200.4 255.351 200.517 255.351C200.637 255.351 200.74 255.393 200.823 255.477C200.907 255.559 200.947 255.658 200.943 255.774C200.941 255.884 200.897 255.979 200.811 256.059C200.724 256.138 200.623 256.178 200.507 256.178ZM202.654 262.113C202.354 262.113 202.091 262.055 201.862 261.939C201.634 261.82 201.464 261.65 201.352 261.428C201.242 261.205 201.212 260.933 201.262 260.615C201.305 260.369 201.387 260.163 201.507 259.995C201.63 259.827 201.785 259.689 201.972 259.581C202.16 259.472 202.375 259.386 202.618 259.323C202.861 259.261 203.126 259.213 203.412 259.181C203.692 259.147 203.931 259.116 204.129 259.091C204.327 259.065 204.481 259.024 204.591 258.968C204.701 258.912 204.766 258.822 204.788 258.697L204.807 258.58C204.863 258.242 204.812 257.977 204.652 257.783C204.493 257.587 204.226 257.489 203.852 257.489C203.494 257.489 203.184 257.569 202.922 257.728C202.661 257.885 202.467 258.069 202.34 258.28L201.83 258.083C201.985 257.812 202.176 257.596 202.402 257.434C202.628 257.271 202.87 257.153 203.128 257.082C203.387 257.009 203.642 256.972 203.893 256.972C204.083 256.972 204.276 256.997 204.471 257.047C204.667 257.096 204.843 257.182 204.998 257.305C205.155 257.426 205.27 257.595 205.343 257.812C205.419 258.027 205.429 258.301 205.376 258.632L204.814 262H204.239L204.371 261.215H204.336C204.245 261.362 204.121 261.504 203.961 261.642C203.804 261.779 203.616 261.892 203.396 261.981C203.177 262.069 202.929 262.113 202.654 262.113ZM202.799 261.587C203.105 261.587 203.381 261.519 203.629 261.383C203.878 261.248 204.083 261.068 204.242 260.844C204.404 260.618 204.507 260.369 204.552 260.098L204.672 259.381C204.624 259.422 204.547 259.459 204.439 259.491C204.334 259.523 204.214 259.552 204.081 259.578C203.949 259.602 203.817 259.622 203.684 259.64C203.552 259.657 203.436 259.672 203.335 259.685C203.049 259.719 202.799 259.773 202.586 259.846C202.375 259.919 202.206 260.021 202.079 260.15C201.952 260.277 201.872 260.44 201.84 260.641C201.79 260.942 201.856 261.176 202.037 261.341C202.22 261.505 202.474 261.587 202.799 261.587ZM207.431 258.9L206.917 262H206.343L207.169 257.04H207.728L207.599 257.818H207.65C207.805 257.564 208.02 257.361 208.293 257.208C208.569 257.053 208.888 256.976 209.252 256.976C209.584 256.976 209.863 257.046 210.092 257.186C210.322 257.323 210.486 257.527 210.582 257.796C210.681 258.065 210.699 258.395 210.634 258.787L210.095 262H209.52L210.05 258.823C210.116 258.418 210.057 258.097 209.872 257.86C209.689 257.621 209.406 257.502 209.023 257.502C208.762 257.502 208.52 257.558 208.296 257.67C208.075 257.782 207.887 257.943 207.734 258.154C207.582 258.363 207.48 258.612 207.431 258.9Z" fill="black"/>
<path d="M280.734 166.394L280.876 165.493L287.718 156.868H288.381L288.138 158.379H287.647L282.143 165.321V165.398H289.234L289.068 166.394H280.734ZM285.958 169L286.438 166.103L286.509 165.701L287.972 156.868H289.027L287.013 169H285.958ZM294.765 169.166C293.912 169.166 293.225 168.921 292.704 168.431C292.183 167.938 291.841 167.227 291.679 166.299C291.517 165.367 291.543 164.245 291.756 162.934C291.969 161.631 292.313 160.515 292.787 159.587C293.261 158.655 293.839 157.942 294.522 157.449C295.21 156.951 295.978 156.702 296.827 156.702C297.672 156.702 298.357 156.951 298.882 157.449C299.407 157.942 299.755 158.655 299.925 159.587C300.099 160.515 300.077 161.631 299.86 162.934C299.638 164.241 299.291 165.361 298.817 166.293C298.343 167.221 297.761 167.932 297.07 168.425C296.382 168.919 295.614 169.166 294.765 169.166ZM294.913 168.171C295.845 168.171 296.653 167.717 297.336 166.808C298.023 165.9 298.505 164.609 298.782 162.934C298.963 161.84 299.001 160.9 298.894 160.115C298.791 159.329 298.552 158.726 298.177 158.308C297.802 157.889 297.305 157.68 296.685 157.68C295.757 157.68 294.951 158.138 294.268 159.054C293.585 159.966 293.105 161.26 292.828 162.934C292.647 164.028 292.607 164.966 292.71 165.748C292.812 166.53 293.049 167.13 293.421 167.549C293.792 167.963 294.289 168.171 294.913 168.171ZM307.774 166.749L307.868 166.198C307.951 165.744 308.111 165.335 308.348 164.972C308.589 164.605 308.893 164.314 309.26 164.101C309.632 163.888 310.05 163.781 310.516 163.781C310.982 163.781 311.363 163.888 311.66 164.101C311.96 164.314 312.167 164.605 312.282 164.972C312.4 165.335 312.42 165.744 312.341 166.198L312.246 166.749C312.167 167.199 312.007 167.608 311.766 167.975C311.529 168.339 311.227 168.629 310.86 168.846C310.493 169.059 310.078 169.166 309.616 169.166C309.15 169.166 308.765 169.059 308.461 168.846C308.161 168.629 307.951 168.339 307.833 167.975C307.714 167.608 307.695 167.199 307.774 166.749ZM308.798 166.198L308.704 166.749C308.625 167.195 308.668 167.576 308.834 167.892C309.004 168.204 309.308 168.36 309.746 168.36C310.173 168.36 310.52 168.204 310.789 167.892C311.057 167.576 311.231 167.195 311.31 166.749L311.405 166.198C311.488 165.752 311.446 165.373 311.28 165.061C311.115 164.745 310.814 164.587 310.38 164.587C309.954 164.587 309.604 164.745 309.332 165.061C309.059 165.373 308.881 165.752 308.798 166.198ZM302.839 159.67L302.922 159.119C302.993 158.665 303.149 158.256 303.39 157.893C303.631 157.53 303.937 157.242 304.308 157.028C304.683 156.811 305.102 156.702 305.564 156.702C306.03 156.702 306.409 156.811 306.701 157.028C306.998 157.242 307.203 157.53 307.318 157.893C307.436 158.256 307.462 158.665 307.395 159.119L307.306 159.67C307.239 160.124 307.085 160.535 306.844 160.902C306.603 161.266 306.297 161.554 305.925 161.767C305.558 161.98 305.142 162.087 304.676 162.087C304.21 162.087 303.828 161.98 303.532 161.767C303.236 161.554 303.029 161.266 302.91 160.902C302.792 160.535 302.768 160.124 302.839 159.67ZM303.858 159.119L303.769 159.67C303.698 160.12 303.746 160.502 303.911 160.813C304.077 161.125 304.377 161.281 304.812 161.281C305.238 161.281 305.588 161.125 305.86 160.813C306.133 160.502 306.305 160.12 306.376 159.67L306.465 159.119C306.532 158.673 306.484 158.294 306.322 157.982C306.164 157.666 305.866 157.508 305.428 157.508C305.001 157.508 304.65 157.666 304.373 157.982C304.097 158.294 303.925 158.673 303.858 159.119ZM301.974 169L311.968 156.868H313.075L303.082 169H301.974Z" fill="black"/>
<path d="M255.113 183L256.21 176.387H256.814L256.311 179.419H260.063L260.566 176.387H261.17L260.072 183H259.469L259.972 179.961H256.22L255.716 183H255.113ZM263.657 183.103C263.222 183.103 262.856 182.994 262.559 182.774C262.262 182.552 262.052 182.245 261.929 181.854C261.806 181.462 261.786 181.01 261.868 180.497C261.95 179.998 262.112 179.559 262.355 179.18C262.601 178.799 262.902 178.503 263.259 178.292C263.617 178.079 264.005 177.972 264.425 177.972C264.862 177.972 265.228 178.083 265.523 178.305C265.82 178.527 266.03 178.833 266.153 179.225C266.278 179.617 266.299 180.07 266.217 180.585C266.135 181.082 265.972 181.52 265.726 181.899C265.481 182.276 265.18 182.571 264.822 182.784C264.467 182.997 264.079 183.103 263.657 183.103ZM263.663 182.577C264.016 182.577 264.33 182.483 264.606 182.296C264.884 182.107 265.113 181.855 265.294 181.54C265.475 181.224 265.596 180.876 265.659 180.497C265.717 180.136 265.71 179.803 265.639 179.5C265.568 179.196 265.431 178.953 265.229 178.77C265.027 178.587 264.758 178.495 264.422 178.495C264.071 178.495 263.757 178.591 263.479 178.783C263.201 178.972 262.972 179.226 262.791 179.545C262.61 179.861 262.49 180.208 262.43 180.585C262.369 180.948 262.374 181.281 262.442 181.582C262.514 181.884 262.65 182.125 262.853 182.306C263.057 182.487 263.327 182.577 263.663 182.577ZM270.543 181.105L271.057 178.04H271.632L270.805 183H270.23L270.366 182.177H270.324C270.169 182.431 269.949 182.643 269.665 182.813C269.383 182.981 269.06 183.065 268.696 183.065C268.38 183.065 268.11 182.996 267.886 182.858C267.664 182.718 267.506 182.513 267.411 182.244C267.316 181.975 267.301 181.645 267.366 181.253L267.905 178.04H268.48L267.95 181.218C267.888 181.605 267.95 181.917 268.138 182.154C268.327 182.389 268.601 182.506 268.958 182.506C269.182 182.506 269.406 182.452 269.63 182.345C269.856 182.237 270.051 182.08 270.217 181.873C270.385 181.664 270.494 181.408 270.543 181.105ZM276.305 179.128L275.753 179.27C275.725 179.122 275.673 178.988 275.598 178.87C275.524 178.75 275.418 178.655 275.278 178.586C275.14 178.515 274.959 178.479 274.735 178.479C274.4 178.479 274.11 178.561 273.867 178.725C273.624 178.886 273.481 179.093 273.441 179.345C273.406 179.556 273.45 179.727 273.573 179.858C273.698 179.989 273.907 180.093 274.199 180.168L274.923 180.352C275.323 180.456 275.608 180.617 275.778 180.837C275.951 181.056 276.01 181.334 275.956 181.67C275.909 181.949 275.789 182.197 275.598 182.412C275.408 182.628 275.165 182.797 274.868 182.919C274.573 183.042 274.244 183.103 273.88 183.103C273.391 183.103 273.007 182.994 272.727 182.774C272.449 182.554 272.301 182.238 272.281 181.825L272.859 181.695C272.877 181.988 272.977 182.21 273.16 182.361C273.345 182.511 273.605 182.587 273.941 182.587C274.324 182.587 274.646 182.499 274.907 182.325C275.167 182.151 275.317 181.935 275.355 181.679C275.392 181.477 275.354 181.309 275.242 181.176C275.133 181.042 274.945 180.943 274.681 180.879L273.909 180.685C273.493 180.579 273.199 180.415 273.027 180.191C272.857 179.965 272.8 179.686 272.856 179.354C272.901 179.081 273.015 178.841 273.198 178.634C273.381 178.428 273.613 178.266 273.893 178.15C274.172 178.032 274.478 177.972 274.81 177.972C275.266 177.972 275.614 178.076 275.853 178.282C276.092 178.487 276.242 178.769 276.305 179.128ZM278.981 183.103C278.518 183.103 278.136 182.996 277.834 182.78C277.533 182.563 277.322 182.263 277.202 181.88C277.081 181.494 277.063 181.051 277.147 180.549C277.231 180.05 277.396 179.606 277.644 179.219C277.892 178.829 278.197 178.525 278.561 178.305C278.925 178.083 279.32 177.972 279.746 177.972C280.015 177.972 280.267 178.022 280.502 178.121C280.736 178.218 280.935 178.367 281.099 178.57C281.265 178.77 281.38 179.023 281.445 179.329C281.509 179.632 281.507 179.992 281.438 180.407L281.393 180.691H277.518L277.599 180.184H280.889C280.943 179.866 280.928 179.579 280.844 179.325C280.76 179.071 280.617 178.87 280.414 178.722C280.214 178.571 279.966 178.495 279.669 178.495C279.365 178.495 279.078 178.581 278.806 178.751C278.537 178.921 278.309 179.142 278.122 179.416C277.937 179.687 277.817 179.977 277.763 180.284L277.699 180.665C277.63 181.085 277.639 181.437 277.725 181.721C277.811 182.003 277.967 182.216 278.193 182.361C278.419 182.505 278.708 182.577 279.062 182.577C279.298 182.577 279.513 182.54 279.704 182.467C279.896 182.394 280.063 182.296 280.205 182.173C280.347 182.049 280.461 181.912 280.547 181.763L281.06 181.941C280.95 182.15 280.796 182.342 280.595 182.519C280.397 182.695 280.162 182.837 279.888 182.945C279.617 183.051 279.314 183.103 278.981 183.103ZM286.047 176.387H286.744L288.191 182.148H288.252L291.601 176.387H292.298L291.2 183H290.632L291.523 177.662H291.471L288.349 183H287.8L286.46 177.662H286.408L285.517 183H284.949L286.047 176.387ZM294.211 183.113C293.912 183.113 293.648 183.055 293.42 182.939C293.192 182.82 293.022 182.65 292.91 182.428C292.8 182.205 292.77 181.933 292.82 181.615C292.863 181.369 292.944 181.163 293.065 180.995C293.188 180.827 293.343 180.689 293.53 180.581C293.717 180.472 293.933 180.386 294.176 180.323C294.419 180.261 294.684 180.213 294.97 180.181C295.25 180.147 295.489 180.116 295.687 180.091C295.885 180.065 296.039 180.024 296.149 179.968C296.259 179.912 296.324 179.822 296.346 179.697L296.365 179.58C296.421 179.242 296.369 178.977 296.21 178.783C296.051 178.587 295.784 178.489 295.409 178.489C295.052 178.489 294.742 178.569 294.479 178.728C294.219 178.885 294.025 179.069 293.898 179.28L293.388 179.083C293.543 178.812 293.733 178.596 293.959 178.434C294.185 178.271 294.428 178.153 294.686 178.082C294.944 178.009 295.199 177.972 295.451 177.972C295.641 177.972 295.833 177.997 296.029 178.047C296.225 178.096 296.401 178.182 296.556 178.305C296.713 178.426 296.828 178.595 296.901 178.812C296.976 179.027 296.987 179.301 296.933 179.632L296.372 183H295.797L295.929 182.215H295.894C295.803 182.362 295.678 182.504 295.519 182.642C295.362 182.779 295.174 182.892 294.954 182.981C294.734 183.069 294.487 183.113 294.211 183.113ZM294.357 182.587C294.662 182.587 294.939 182.519 295.186 182.383C295.436 182.248 295.641 182.068 295.8 181.844C295.961 181.618 296.065 181.369 296.11 181.098L296.229 180.381C296.182 180.422 296.105 180.459 295.997 180.491C295.891 180.523 295.772 180.552 295.639 180.578C295.507 180.602 295.375 180.622 295.241 180.64C295.11 180.657 294.994 180.672 294.893 180.685C294.606 180.719 294.357 180.773 294.144 180.846C293.933 180.919 293.764 181.021 293.637 181.15C293.51 181.277 293.43 181.44 293.398 181.641C293.348 181.942 293.414 182.176 293.595 182.341C293.778 182.505 294.032 182.587 294.357 182.587ZM297.907 183L298.734 178.04H299.312L298.485 183H297.907ZM299.231 177.178C299.11 177.178 299.008 177.137 298.924 177.055C298.842 176.974 298.802 176.875 298.805 176.758C298.809 176.648 298.853 176.554 298.937 176.474C299.023 176.392 299.124 176.351 299.241 176.351C299.361 176.351 299.463 176.393 299.547 176.477C299.631 176.559 299.671 176.658 299.667 176.774C299.665 176.884 299.62 176.979 299.534 177.059C299.448 177.138 299.347 177.178 299.231 177.178ZM301.093 179.9L300.58 183H300.005L300.832 178.04H301.39L301.261 178.818H301.313C301.468 178.564 301.682 178.361 301.955 178.208C302.231 178.053 302.551 177.976 302.914 177.976C303.246 177.976 303.526 178.046 303.754 178.186C303.984 178.323 304.148 178.527 304.245 178.796C304.344 179.065 304.361 179.395 304.296 179.787L303.757 183H303.182L303.712 179.823C303.779 179.418 303.719 179.097 303.534 178.86C303.351 178.621 303.068 178.502 302.685 178.502C302.425 178.502 302.182 178.558 301.959 178.67C301.737 178.782 301.55 178.943 301.397 179.154C301.244 179.363 301.143 179.612 301.093 179.9ZM308.051 178.04L307.97 178.541H305.6L305.684 178.04H308.051ZM306.617 176.852H307.195L306.388 181.705C306.354 181.912 306.362 182.074 306.414 182.193C306.466 182.309 306.545 182.392 306.653 182.441C306.76 182.489 306.879 182.512 307.008 182.512C307.083 182.512 307.148 182.508 307.202 182.499C307.258 182.489 307.307 182.478 307.35 182.467L307.392 182.987C307.33 183.009 307.256 183.028 307.169 183.045C307.083 183.065 306.98 183.074 306.859 183.074C306.648 183.074 306.454 183.028 306.275 182.935C306.096 182.843 305.961 182.705 305.868 182.522C305.776 182.339 305.751 182.112 305.794 181.841L306.617 176.852ZM310.469 183.103C310.006 183.103 309.624 182.996 309.322 182.78C309.021 182.563 308.81 182.263 308.69 181.88C308.569 181.494 308.551 181.051 308.635 180.549C308.719 180.05 308.884 179.606 309.132 179.219C309.379 178.829 309.685 178.525 310.049 178.305C310.413 178.083 310.808 177.972 311.234 177.972C311.503 177.972 311.755 178.022 311.99 178.121C312.224 178.218 312.423 178.367 312.587 178.57C312.753 178.77 312.868 179.023 312.932 179.329C312.997 179.632 312.995 179.992 312.926 180.407L312.881 180.691H309.006L309.087 180.184H312.377C312.431 179.866 312.416 179.579 312.332 179.325C312.248 179.071 312.105 178.87 311.902 178.722C311.702 178.571 311.454 178.495 311.156 178.495C310.853 178.495 310.566 178.581 310.294 178.751C310.025 178.921 309.797 179.142 309.61 179.416C309.425 179.687 309.305 179.977 309.251 180.284L309.187 180.665C309.118 181.085 309.127 181.437 309.213 181.721C309.299 182.003 309.455 182.216 309.681 182.361C309.907 182.505 310.196 182.577 310.549 182.577C310.786 182.577 311 182.54 311.192 182.467C311.384 182.394 311.55 182.296 311.693 182.173C311.835 182.049 311.949 181.912 312.035 181.763L312.548 181.941C312.438 182.15 312.283 182.342 312.083 182.519C311.885 182.695 311.649 182.837 311.376 182.945C311.105 183.051 310.802 183.103 310.469 183.103ZM314.848 179.9L314.335 183H313.76L314.587 178.04H315.145L315.016 178.818H315.068C315.223 178.564 315.437 178.361 315.71 178.208C315.986 178.053 316.305 177.976 316.669 177.976C317.001 177.976 317.281 178.046 317.509 178.186C317.739 178.323 317.903 178.527 318 178.796C318.099 179.065 318.116 179.395 318.051 179.787L317.512 183H316.937L317.467 179.823C317.534 179.418 317.474 179.097 317.289 178.86C317.106 178.621 316.823 178.502 316.44 178.502C316.18 178.502 315.937 178.558 315.713 178.67C315.492 178.782 315.304 178.943 315.152 179.154C314.999 179.363 314.898 179.612 314.848 179.9ZM320.398 183.113C320.099 183.113 319.835 183.055 319.607 182.939C319.379 182.82 319.209 182.65 319.097 182.428C318.987 182.205 318.957 181.933 319.006 181.615C319.049 181.369 319.131 181.163 319.252 180.995C319.374 180.827 319.529 180.689 319.717 180.581C319.904 180.472 320.119 180.386 320.362 180.323C320.606 180.261 320.87 180.213 321.157 180.181C321.437 180.147 321.676 180.116 321.874 180.091C322.072 180.065 322.226 180.024 322.335 179.968C322.445 179.912 322.511 179.822 322.532 179.697L322.552 179.58C322.608 179.242 322.556 178.977 322.397 178.783C322.237 178.587 321.971 178.489 321.596 178.489C321.239 178.489 320.929 178.569 320.666 178.728C320.406 178.885 320.212 179.069 320.085 179.28L319.575 179.083C319.73 178.812 319.92 178.596 320.146 178.434C320.372 178.271 320.614 178.153 320.873 178.082C321.131 178.009 321.386 177.972 321.638 177.972C321.827 177.972 322.02 177.997 322.216 178.047C322.412 178.096 322.587 178.182 322.742 178.305C322.899 178.426 323.015 178.595 323.088 178.812C323.163 179.027 323.174 179.301 323.12 179.632L322.558 183H321.983L322.116 182.215H322.08C321.99 182.362 321.865 182.504 321.706 182.642C321.549 182.779 321.36 182.892 321.141 182.981C320.921 183.069 320.674 183.113 320.398 183.113ZM320.543 182.587C320.849 182.587 321.126 182.519 321.373 182.383C321.623 182.248 321.827 182.068 321.987 181.844C322.148 181.618 322.251 181.369 322.297 181.098L322.416 180.381C322.369 180.422 322.291 180.459 322.184 180.491C322.078 180.523 321.959 180.552 321.825 180.578C321.694 180.602 321.562 180.622 321.428 180.64C321.297 180.657 321.18 180.672 321.079 180.685C320.793 180.719 320.543 180.773 320.33 180.846C320.119 180.919 319.95 181.021 319.823 181.15C319.696 181.277 319.617 181.44 319.584 181.641C319.535 181.942 319.6 182.176 319.781 182.341C319.964 182.505 320.218 182.587 320.543 182.587ZM325.175 179.9L324.662 183H324.087L324.914 178.04H325.472L325.343 178.818H325.395C325.55 178.564 325.764 178.361 326.037 178.208C326.313 178.053 326.633 177.976 326.997 177.976C327.328 177.976 327.608 178.046 327.836 178.186C328.066 178.323 328.23 178.527 328.327 178.796C328.426 179.065 328.443 179.395 328.379 179.787L327.839 183H327.265L327.794 179.823C327.861 179.418 327.802 179.097 327.616 178.86C327.433 178.621 327.15 178.502 326.767 178.502C326.507 178.502 326.265 178.558 326.041 178.67C325.819 178.782 325.632 178.943 325.479 179.154C325.326 179.363 325.225 179.612 325.175 179.9ZM331.277 183.103C330.83 183.103 330.46 182.992 330.17 182.771C329.879 182.549 329.676 182.245 329.56 181.86C329.445 181.473 329.429 181.034 329.511 180.543C329.593 180.043 329.758 179.601 330.005 179.216C330.253 178.828 330.558 178.525 330.922 178.305C331.288 178.083 331.687 177.972 332.12 177.972C332.454 177.972 332.744 178.037 332.992 178.166C333.24 178.293 333.431 178.473 333.567 178.705C333.702 178.936 333.767 179.205 333.761 179.513H333.179C333.164 179.226 333.06 178.985 332.866 178.789C332.674 178.593 332.403 178.495 332.052 178.495C331.732 178.495 331.435 178.582 331.161 178.754C330.888 178.924 330.656 179.162 330.467 179.467C330.28 179.771 330.154 180.123 330.089 180.523C330.02 180.926 330.027 181.282 330.108 181.592C330.19 181.9 330.337 182.141 330.548 182.315C330.761 182.49 331.03 182.577 331.355 182.577C331.577 182.577 331.785 182.536 331.981 182.454C332.177 182.37 332.351 182.252 332.501 182.099C332.652 181.944 332.767 181.762 332.847 181.553H333.428C333.331 181.855 333.178 182.122 332.969 182.354C332.763 182.587 332.515 182.77 332.227 182.903C331.938 183.037 331.622 183.103 331.277 183.103ZM336.407 183.103C335.944 183.103 335.562 182.996 335.26 182.78C334.959 182.563 334.748 182.263 334.628 181.88C334.507 181.494 334.489 181.051 334.573 180.549C334.657 180.05 334.822 179.606 335.07 179.219C335.317 178.829 335.623 178.525 335.987 178.305C336.351 178.083 336.746 177.972 337.172 177.972C337.441 177.972 337.693 178.022 337.928 178.121C338.162 178.218 338.361 178.367 338.525 178.57C338.691 178.77 338.806 179.023 338.87 179.329C338.935 179.632 338.933 179.992 338.864 180.407L338.819 180.691H334.944L335.025 180.184H338.315C338.369 179.866 338.354 179.579 338.27 179.325C338.186 179.071 338.043 178.87 337.84 178.722C337.64 178.571 337.392 178.495 337.094 178.495C336.791 178.495 336.504 178.581 336.232 178.751C335.963 178.921 335.735 179.142 335.548 179.416C335.363 179.687 335.243 179.977 335.189 180.284L335.125 180.665C335.056 181.085 335.065 181.437 335.151 181.721C335.237 182.003 335.393 182.216 335.619 182.361C335.845 182.505 336.134 182.577 336.487 182.577C336.724 182.577 336.938 182.54 337.13 182.467C337.322 182.394 337.488 182.296 337.631 182.173C337.773 182.049 337.887 181.912 337.973 181.763L338.486 181.941C338.376 182.15 338.221 182.342 338.021 182.519C337.823 182.695 337.587 182.837 337.314 182.945C337.043 183.051 336.74 183.103 336.407 183.103Z" fill="black"/>
<path d="M277.734 75.3936L277.876 74.4932L284.718 65.8683H285.381L285.138 67.3789H284.647L279.143 74.3214V74.3984H286.234L286.068 75.3936H277.734ZM282.958 78L283.438 75.1033L283.509 74.7005L284.972 65.8683H286.027L284.013 78H282.958ZM291.765 78.1659C290.912 78.1659 290.225 77.921 289.704 77.4313C289.183 76.9377 288.841 76.2269 288.679 75.2988C288.517 74.3668 288.543 73.2453 288.756 71.9342C288.969 70.631 289.313 69.5153 289.787 68.5873C290.261 67.6553 290.839 66.9425 291.522 66.4489C292.21 65.9513 292.978 65.7025 293.827 65.7025C294.672 65.7025 295.357 65.9513 295.882 66.4489C296.407 66.9425 296.755 67.6553 296.925 68.5873C297.099 69.5153 297.077 70.631 296.86 71.9342C296.638 73.2413 296.291 74.3609 295.817 75.2929C295.343 76.2209 294.761 76.9318 294.07 77.4254C293.382 77.919 292.614 78.1659 291.765 78.1659ZM291.913 77.1707C292.845 77.1707 293.653 76.7165 294.336 75.8082C295.023 74.9 295.505 73.6086 295.782 71.9342C295.963 70.8403 296.001 69.9004 295.894 69.1145C295.791 68.3286 295.552 67.7264 295.177 67.3078C294.802 66.8892 294.305 66.6799 293.685 66.6799C292.757 66.6799 291.951 67.138 291.268 68.0542C290.585 68.9664 290.105 70.2597 289.828 71.9342C289.647 73.0281 289.607 73.966 289.71 74.7479C289.812 75.5298 290.049 76.1301 290.421 76.5487C290.792 76.9634 291.289 77.1707 291.913 77.1707ZM304.774 75.749L304.868 75.1981C304.951 74.744 305.111 74.3352 305.348 73.9719C305.589 73.6046 305.893 73.3144 306.26 73.1011C306.632 72.8879 307.05 72.7813 307.516 72.7813C307.982 72.7813 308.363 72.8879 308.66 73.1011C308.96 73.3144 309.167 73.6046 309.282 73.9719C309.4 74.3352 309.42 74.744 309.341 75.1981L309.246 75.749C309.167 76.1992 309.007 76.6079 308.766 76.9752C308.529 77.3385 308.227 77.6288 307.86 77.846C307.493 78.0592 307.078 78.1659 306.616 78.1659C306.15 78.1659 305.765 78.0592 305.461 77.846C305.161 77.6288 304.951 77.3385 304.833 76.9752C304.714 76.6079 304.695 76.1992 304.774 75.749ZM305.798 75.1981L305.704 75.749C305.625 76.1953 305.668 76.5763 305.834 76.8923C306.004 77.2043 306.308 77.3602 306.746 77.3602C307.173 77.3602 307.52 77.2043 307.789 76.8923C308.057 76.5763 308.231 76.1953 308.31 75.749L308.405 75.1981C308.488 74.7519 308.446 74.3727 308.28 74.0608C308.115 73.7448 307.814 73.5869 307.38 73.5869C306.954 73.5869 306.604 73.7448 306.332 74.0608C306.059 74.3727 305.881 74.7519 305.798 75.1981ZM299.839 68.6702L299.922 68.1193C299.993 67.6652 300.149 67.2565 300.39 66.8931C300.631 66.5298 300.937 66.2415 301.308 66.0283C301.683 65.8111 302.102 65.7025 302.564 65.7025C303.03 65.7025 303.409 65.8111 303.701 66.0283C303.998 66.2415 304.203 66.5298 304.318 66.8931C304.436 67.2565 304.462 67.6652 304.395 68.1193L304.306 68.6702C304.239 69.1244 304.085 69.5351 303.844 69.9024C303.603 70.2657 303.297 70.554 302.925 70.7672C302.558 70.9805 302.142 71.0871 301.676 71.0871C301.21 71.0871 300.828 70.9805 300.532 70.7672C300.236 70.554 300.029 70.2657 299.91 69.9024C299.792 69.5351 299.768 69.1244 299.839 68.6702ZM300.858 68.1193L300.769 68.6702C300.698 69.1204 300.746 69.5015 300.911 69.8135C301.077 70.1255 301.377 70.2815 301.812 70.2815C302.238 70.2815 302.588 70.1255 302.86 69.8135C303.133 69.5015 303.305 69.1204 303.376 68.6702L303.465 68.1193C303.532 67.6731 303.484 67.294 303.322 66.982C303.164 66.6661 302.866 66.5081 302.428 66.5081C302.001 66.5081 301.65 66.6661 301.373 66.982C301.097 67.294 300.925 67.6731 300.858 68.1193ZM298.974 78L308.968 65.8683H310.075L300.082 78H298.974Z" fill="black"/>
<path d="M272.492 92L273.59 85.3869H277.426L277.335 85.9294H274.103L273.69 88.419H276.719L276.628 88.9615H273.599L273.186 91.4575H276.483L276.392 92H272.492ZM279.444 85.3869L278.346 92H277.771L278.869 85.3869H279.444ZM281.859 92.1033C281.396 92.1033 281.014 91.9957 280.713 91.7804C280.412 91.563 280.201 91.2627 280.08 90.8795C279.959 90.4942 279.941 90.0507 280.025 89.5492C280.109 89.0497 280.275 88.6063 280.522 88.2188C280.77 87.8292 281.076 87.5246 281.439 87.305C281.803 87.0833 282.198 86.9724 282.625 86.9724C282.894 86.9724 283.145 87.0219 283.38 87.1209C283.615 87.2178 283.814 87.3674 283.977 87.5698C284.143 87.77 284.258 88.0229 284.323 88.3286C284.388 88.6321 284.385 88.9916 284.317 89.4071L284.271 89.6912H280.396L280.477 89.1843H283.768C283.821 88.8657 283.806 88.5794 283.722 88.3254C283.638 88.0713 283.495 87.8701 283.293 87.7215C283.093 87.5708 282.844 87.4955 282.547 87.4955C282.243 87.4955 281.956 87.5805 281.685 87.7506C281.416 87.9207 281.188 88.1424 281 88.4158C280.815 88.687 280.696 88.9765 280.642 89.2844L280.577 89.6654C280.508 90.0852 280.517 90.4371 280.603 90.7213C280.689 91.0033 280.845 91.2164 281.071 91.3607C281.297 91.5049 281.587 91.577 281.94 91.577C282.177 91.577 282.391 91.5404 282.583 91.4672C282.774 91.394 282.941 91.2961 283.083 91.1734C283.225 91.0485 283.339 90.9118 283.425 90.7633L283.939 90.9409C283.829 91.1497 283.674 91.3424 283.474 91.5189C283.276 91.6954 283.04 91.8375 282.767 91.9451C282.495 92.0506 282.193 92.1033 281.859 92.1033ZM287.075 92.1033C286.627 92.1033 286.258 91.9925 285.967 91.7707C285.677 91.549 285.473 91.2455 285.357 90.8602C285.243 90.4727 285.227 90.0335 285.309 89.5427C285.39 89.0433 285.555 88.6009 285.803 88.2156C286.05 87.8281 286.356 87.5246 286.72 87.305C287.086 87.0833 287.485 86.9724 287.918 86.9724C288.251 86.9724 288.542 87.037 288.79 87.1661C289.037 87.2931 289.229 87.4729 289.364 87.7054C289.5 87.9357 289.565 88.2048 289.558 88.5126H288.977C288.962 88.2263 288.857 87.9852 288.664 87.7893C288.472 87.5934 288.201 87.4955 287.85 87.4955C287.529 87.4955 287.232 87.5816 286.959 87.7538C286.685 87.9239 286.454 88.1618 286.264 88.4674C286.077 88.771 285.951 89.1229 285.887 89.5233C285.818 89.9259 285.824 90.2822 285.906 90.5921C285.988 90.9 286.134 91.1411 286.345 91.3154C286.558 91.4898 286.827 91.577 287.152 91.577C287.374 91.577 287.583 91.5361 287.779 91.4543C287.975 91.3703 288.148 91.2519 288.299 91.0991C288.449 90.9441 288.565 90.7622 288.644 90.5534H289.225C289.129 90.8548 288.976 91.1217 288.767 91.3542C288.56 91.5867 288.313 91.7697 288.024 91.9031C287.736 92.0366 287.419 92.1033 287.075 92.1033ZM292.992 87.0402L292.911 87.5407H290.541L290.625 87.0402H292.992ZM291.558 85.8519H292.136L291.329 90.7052C291.295 90.9118 291.303 91.0743 291.355 91.1927C291.407 91.309 291.486 91.3919 291.594 91.4414C291.702 91.4887 291.82 91.5124 291.949 91.5124C292.025 91.5124 292.089 91.5081 292.143 91.4995C292.199 91.4887 292.248 91.478 292.291 91.4672L292.333 91.9871C292.271 92.0086 292.197 92.028 292.111 92.0452C292.025 92.0646 291.921 92.0743 291.801 92.0743C291.59 92.0743 291.395 92.028 291.216 91.9354C291.037 91.8429 290.902 91.7051 290.809 91.5221C290.717 91.3391 290.692 91.112 290.735 90.8408L291.558 85.8519ZM293.471 92L294.297 87.0402H294.856L294.727 87.8023H294.769C294.907 87.5525 295.112 87.3513 295.386 87.1984C295.661 87.0434 295.955 86.9659 296.267 86.9659C296.315 86.9659 296.367 86.967 296.425 86.9692C296.484 86.9692 296.532 86.9713 296.571 86.9756L296.471 87.5601C296.445 87.5558 296.4 87.5493 296.335 87.5407C296.273 87.5321 296.203 87.5278 296.125 87.5278C295.867 87.5278 295.628 87.5827 295.408 87.6925C295.191 87.8001 295.008 87.9497 294.859 88.1413C294.713 88.3329 294.618 88.5514 294.575 88.7968L294.046 92H293.471ZM296.727 92L297.554 87.0402H298.132L297.305 92H296.727ZM298.051 86.1781C297.931 86.1781 297.828 86.1372 297.744 86.0554C297.663 85.9735 297.623 85.8745 297.625 85.7583C297.629 85.6485 297.673 85.5538 297.757 85.4741C297.843 85.3923 297.945 85.3514 298.061 85.3514C298.181 85.3514 298.284 85.3934 298.368 85.4774C298.452 85.5592 298.491 85.6582 298.487 85.7744C298.485 85.8842 298.441 85.9789 298.355 86.0586C298.269 86.1382 298.167 86.1781 298.051 86.1781ZM300.75 92.1033C300.302 92.1033 299.933 91.9925 299.642 91.7707C299.352 91.549 299.148 91.2455 299.032 90.8602C298.918 90.4727 298.902 90.0335 298.984 89.5427C299.065 89.0433 299.23 88.6009 299.478 88.2156C299.725 87.8281 300.031 87.5246 300.395 87.305C300.761 87.0833 301.16 86.9724 301.593 86.9724C301.926 86.9724 302.217 87.037 302.465 87.1661C302.712 87.2931 302.904 87.4729 303.039 87.7054C303.175 87.9357 303.239 88.2048 303.233 88.5126H302.652C302.637 88.2263 302.532 87.9852 302.339 87.7893C302.147 87.5934 301.876 87.4955 301.525 87.4955C301.204 87.4955 300.907 87.5816 300.634 87.7538C300.36 87.9239 300.129 88.1618 299.939 88.4674C299.752 88.771 299.626 89.1229 299.562 89.5233C299.493 89.9259 299.499 90.2822 299.581 90.5921C299.663 90.9 299.809 91.1411 300.02 91.3154C300.233 91.4898 300.502 91.577 300.827 91.577C301.049 91.577 301.258 91.5361 301.454 91.4543C301.65 91.3703 301.823 91.2519 301.974 91.0991C302.124 90.9441 302.24 90.7622 302.319 90.5534H302.9C302.804 90.8548 302.651 91.1217 302.442 91.3542C302.235 91.5867 301.988 91.7697 301.699 91.9031C301.411 92.0366 301.094 92.1033 300.75 92.1033ZM303.893 92L304.72 87.0402H305.298L304.471 92H303.893ZM305.217 86.1781C305.097 86.1781 304.994 86.1372 304.91 86.0554C304.829 85.9735 304.789 85.8745 304.791 85.7583C304.795 85.6485 304.839 85.5538 304.923 85.4741C305.01 85.3923 305.111 85.3514 305.227 85.3514C305.347 85.3514 305.45 85.3934 305.534 85.4774C305.618 85.5592 305.657 85.6582 305.653 85.7744C305.651 85.8842 305.607 85.9789 305.521 86.0586C305.435 86.1382 305.334 86.1781 305.217 86.1781ZM307.364 92.113C307.065 92.113 306.801 92.0549 306.573 91.9386C306.344 91.8203 306.174 91.6502 306.062 91.4285C305.953 91.2046 305.923 90.9333 305.972 90.6147C306.015 90.3693 306.097 90.1627 306.217 89.9948C306.34 89.8269 306.495 89.6891 306.682 89.5815C306.87 89.4717 307.085 89.3856 307.328 89.3231C307.571 89.2607 307.836 89.2133 308.123 89.1811C308.402 89.1466 308.641 89.1165 308.839 89.0906C309.037 89.0648 309.191 89.0239 309.301 88.9679C309.411 88.912 309.477 88.8216 309.498 88.6967L309.518 88.5805C309.573 88.2425 309.522 87.9766 309.363 87.7829C309.203 87.587 308.936 87.489 308.562 87.489C308.204 87.489 307.894 87.5687 307.632 87.728C307.371 87.8851 307.178 88.0692 307.051 88.2802L306.54 88.0832C306.695 87.8119 306.886 87.5956 307.112 87.4341C307.338 87.2705 307.58 87.1532 307.838 87.0822C308.097 87.009 308.352 86.9724 308.604 86.9724C308.793 86.9724 308.986 86.9972 309.182 87.0467C309.378 87.0962 309.553 87.1823 309.708 87.305C309.865 87.4255 309.98 87.5945 310.054 87.8119C310.129 88.0272 310.14 88.3006 310.086 88.6321L309.524 92H308.949L309.082 91.2153H309.046C308.956 91.3617 308.831 91.5038 308.672 91.6416C308.514 91.7793 308.326 91.8924 308.106 91.9806C307.887 92.0689 307.639 92.113 307.364 92.113ZM307.509 91.5867C307.815 91.5867 308.091 91.5189 308.339 91.3833C308.589 91.2476 308.793 91.0679 308.952 90.844C309.114 90.618 309.217 90.3693 309.262 90.0981L309.382 89.3813C309.335 89.4222 309.257 89.4588 309.149 89.491C309.044 89.5233 308.924 89.5524 308.791 89.5782C308.66 89.6019 308.527 89.6224 308.394 89.6396C308.263 89.6568 308.146 89.6719 308.045 89.6848C307.759 89.7192 307.509 89.773 307.296 89.8462C307.085 89.9194 306.916 90.0206 306.789 90.1498C306.662 90.2768 306.582 90.4404 306.55 90.6406C306.501 90.942 306.566 91.1755 306.747 91.3413C306.93 91.5049 307.184 91.5867 307.509 91.5867ZM312.141 88.9001L311.628 92H311.053L311.88 87.0402H312.438L312.309 87.8184H312.361C312.516 87.5644 312.73 87.361 313.003 87.2081C313.279 87.0531 313.598 86.9756 313.962 86.9756C314.294 86.9756 314.574 87.0456 314.802 87.1855C315.032 87.3233 315.196 87.5267 315.293 87.7958C315.392 88.0649 315.409 88.3953 315.344 88.7871L314.805 92H314.23L314.76 88.8226C314.827 88.4179 314.767 88.0972 314.582 87.8604C314.399 87.6214 314.116 87.502 313.733 87.502C313.473 87.502 313.23 87.5579 313.006 87.6699C312.785 87.7818 312.597 87.9433 312.445 88.1542C312.292 88.363 312.191 88.6117 312.141 88.9001Z" fill="black"/>
<path d="M231.734 13.3936L231.876 12.4932L238.718 3.86834H239.381L239.138 5.37888H238.647L233.143 12.3214V12.3984H240.234L240.068 13.3936H231.734ZM236.958 16L237.438 13.1033L237.509 12.7005L238.972 3.86834H240.027L238.013 16H236.958ZM245.765 16.1659C244.912 16.1659 244.225 15.921 243.704 15.4313C243.183 14.9377 242.841 14.2269 242.679 13.2988C242.517 12.3668 242.543 11.2453 242.756 9.93417C242.969 8.63097 243.313 7.51534 243.787 6.5873C244.261 5.65531 244.839 4.9425 245.522 4.44886C246.21 3.95127 246.978 3.70248 247.827 3.70248C248.672 3.70248 249.357 3.95127 249.882 4.44886C250.407 4.9425 250.755 5.65531 250.925 6.5873C251.099 7.51534 251.077 8.63097 250.86 9.93417C250.638 11.2413 250.291 12.3609 249.817 13.2929C249.343 14.2209 248.761 14.9318 248.07 15.4254C247.382 15.919 246.614 16.1659 245.765 16.1659ZM245.913 15.1707C246.845 15.1707 247.653 14.7165 248.336 13.8082C249.023 12.9 249.505 11.6086 249.782 9.93417C249.963 8.84027 250.001 7.90038 249.894 7.11451C249.791 6.32864 249.552 5.7264 249.177 5.30779C248.802 4.88919 248.305 4.67988 247.685 4.67988C246.757 4.67988 245.951 5.13798 245.268 6.05417C244.585 6.96642 244.105 8.25975 243.828 9.93417C243.647 11.0281 243.607 11.966 243.71 12.7479C243.812 13.5298 244.049 14.1301 244.421 14.5487C244.792 14.9634 245.289 15.1707 245.913 15.1707ZM258.774 13.749L258.868 13.1981C258.951 12.744 259.111 12.3352 259.348 11.9719C259.589 11.6046 259.893 11.3144 260.26 11.1011C260.632 10.8879 261.05 10.7813 261.516 10.7813C261.982 10.7813 262.363 10.8879 262.66 11.1011C262.96 11.3144 263.167 11.6046 263.282 11.9719C263.4 12.3352 263.42 12.744 263.341 13.1981L263.246 13.749C263.167 14.1992 263.007 14.6079 262.766 14.9752C262.529 15.3385 262.227 15.6288 261.86 15.846C261.493 16.0592 261.078 16.1659 260.616 16.1659C260.15 16.1659 259.765 16.0592 259.461 15.846C259.161 15.6288 258.951 15.3385 258.833 14.9752C258.714 14.6079 258.695 14.1992 258.774 13.749ZM259.798 13.1981L259.704 13.749C259.625 14.1953 259.668 14.5763 259.834 14.8923C260.004 15.2043 260.308 15.3602 260.746 15.3602C261.173 15.3602 261.52 15.2043 261.789 14.8923C262.057 14.5763 262.231 14.1953 262.31 13.749L262.405 13.1981C262.488 12.7519 262.446 12.3727 262.28 12.0608C262.115 11.7448 261.814 11.5869 261.38 11.5869C260.954 11.5869 260.604 11.7448 260.332 12.0608C260.059 12.3727 259.881 12.7519 259.798 13.1981ZM253.839 6.67023L253.922 6.11933C253.993 5.66519 254.149 5.25645 254.39 4.89314C254.631 4.52982 254.937 4.24153 255.308 4.02828C255.683 3.81108 256.102 3.70248 256.564 3.70248C257.03 3.70248 257.409 3.81108 257.701 4.02828C257.998 4.24153 258.203 4.52982 258.318 4.89314C258.436 5.25645 258.462 5.66519 258.395 6.11933L258.306 6.67023C258.239 7.12438 258.085 7.53509 257.844 7.90235C257.603 8.26567 257.297 8.55396 256.925 8.76721C256.558 8.98046 256.142 9.08709 255.676 9.08709C255.21 9.08709 254.828 8.98046 254.532 8.76721C254.236 8.55396 254.029 8.26567 253.91 7.90235C253.792 7.53509 253.768 7.12438 253.839 6.67023ZM254.858 6.11933L254.769 6.67023C254.698 7.12043 254.746 7.50152 254.911 7.8135C255.077 8.12548 255.377 8.28147 255.812 8.28147C256.238 8.28147 256.588 8.12548 256.86 7.8135C257.133 7.50152 257.305 7.12043 257.376 6.67023L257.465 6.11933C257.532 5.67308 257.484 5.29397 257.322 4.98199C257.164 4.66606 256.866 4.5081 256.428 4.5081C256.001 4.5081 255.65 4.66606 255.373 4.98199C255.097 5.29397 254.925 5.67308 254.858 6.11933ZM252.974 16L262.968 3.86834H264.075L254.082 16H252.974Z" fill="black"/>
<path d="M213.428 25.4535C213.406 25.2318 213.357 25.0251 213.279 24.8335C213.202 24.6398 213.093 24.4708 212.953 24.3266C212.813 24.1824 212.64 24.0693 212.433 23.9875C212.229 23.9057 211.987 23.8648 211.71 23.8648C211.299 23.8648 210.9 23.9735 210.515 24.191C210.132 24.4084 209.799 24.7281 209.517 25.15C209.237 25.5698 209.047 26.0843 208.946 26.6935C208.847 27.2898 208.856 27.7989 208.975 28.2208C209.093 28.6427 209.303 28.9656 209.604 29.1895C209.906 29.4112 210.281 29.5221 210.731 29.5221C211.136 29.5221 211.513 29.4317 211.861 29.2509C212.21 29.0679 212.504 28.8085 212.743 28.4727C212.982 28.1368 213.137 27.7386 213.208 27.2779L213.389 27.3393H211.271L211.371 26.7968H213.88L213.78 27.3393C213.689 27.9054 213.496 28.3941 213.202 28.8053C212.907 29.2164 212.541 29.5339 212.104 29.7578C211.667 29.9795 211.191 30.0904 210.676 30.0904C210.099 30.0904 209.617 29.9516 209.23 29.6739C208.844 29.394 208.574 29.0001 208.419 28.492C208.264 27.984 208.245 27.3845 208.361 26.6935C208.443 26.1747 208.587 25.7065 208.794 25.2888C209.001 24.8712 209.255 24.5149 209.556 24.22C209.859 23.923 210.197 23.6948 210.57 23.5355C210.944 23.3762 211.341 23.2965 211.758 23.2965C212.12 23.2965 212.442 23.3536 212.724 23.4677C213.006 23.5818 213.245 23.7389 213.44 23.9391C213.636 24.1372 213.785 24.3664 213.886 24.6269C213.989 24.8852 214.043 25.1608 214.048 25.4535H213.428ZM216.099 30.113C215.8 30.113 215.536 30.0549 215.308 29.9386C215.079 29.8203 214.909 29.6502 214.797 29.4285C214.688 29.2046 214.658 28.9333 214.707 28.6147C214.75 28.3693 214.832 28.1627 214.952 27.9948C215.075 27.8269 215.23 27.6891 215.417 27.5815C215.605 27.4717 215.82 27.3856 216.063 27.3231C216.307 27.2607 216.571 27.2133 216.858 27.1811C217.137 27.1466 217.376 27.1165 217.574 27.0906C217.772 27.0648 217.926 27.0239 218.036 26.9679C218.146 26.912 218.212 26.8216 218.233 26.6967L218.253 26.5805C218.309 26.2425 218.257 25.9766 218.098 25.7829C217.938 25.587 217.671 25.489 217.297 25.489C216.939 25.489 216.629 25.5687 216.367 25.728C216.106 25.8851 215.913 26.0692 215.786 26.2802L215.275 26.0832C215.43 25.8119 215.621 25.5956 215.847 25.4341C216.073 25.2705 216.315 25.1532 216.573 25.0822C216.832 25.009 217.087 24.9724 217.339 24.9724C217.528 24.9724 217.721 24.9972 217.917 25.0467C218.113 25.0962 218.288 25.1823 218.443 25.305C218.6 25.4255 218.715 25.5945 218.789 25.8119C218.864 26.0272 218.875 26.3006 218.821 26.6321L218.259 30H217.684L217.817 29.2153H217.781C217.691 29.3617 217.566 29.5038 217.407 29.6416C217.249 29.7793 217.061 29.8924 216.841 29.9806C216.622 30.0689 216.374 30.113 216.099 30.113ZM216.244 29.5867C216.55 29.5867 216.826 29.5189 217.074 29.3833C217.324 29.2476 217.528 29.0679 217.687 28.844C217.849 28.618 217.952 28.3693 217.997 28.0981L218.117 27.3813C218.07 27.4222 217.992 27.4588 217.884 27.491C217.779 27.5233 217.659 27.5524 217.526 27.5782C217.395 27.6019 217.262 27.6224 217.129 27.6396C216.998 27.6568 216.881 27.6719 216.78 27.6848C216.494 27.7192 216.244 27.773 216.031 27.8462C215.82 27.9194 215.651 28.0206 215.524 28.1498C215.397 28.2768 215.317 28.4404 215.285 28.6406C215.236 28.942 215.301 29.1755 215.482 29.3413C215.665 29.5049 215.919 29.5867 216.244 29.5867ZM219.788 30L220.615 25.0402H221.173L221.044 25.8023H221.086C221.224 25.5525 221.429 25.3513 221.703 25.1984C221.978 25.0434 222.272 24.9659 222.584 24.9659C222.632 24.9659 222.684 24.967 222.743 24.9692C222.801 24.9692 222.849 24.9713 222.888 24.9756L222.788 25.5601C222.762 25.5558 222.717 25.5493 222.652 25.5407C222.59 25.5321 222.52 25.5278 222.442 25.5278C222.184 25.5278 221.945 25.5827 221.725 25.6925C221.508 25.8001 221.325 25.9497 221.176 26.1413C221.03 26.3329 220.935 26.5514 220.892 26.7968L220.363 30H219.788ZM224.663 30.1033C224.256 30.1033 223.917 29.9957 223.646 29.7804C223.375 29.5652 223.185 29.2649 223.078 28.8795C222.97 28.4942 222.958 28.0454 223.042 27.533C223.128 27.0228 223.288 26.5761 223.523 26.193C223.76 25.8076 224.049 25.5084 224.392 25.2953C224.736 25.08 225.112 24.9724 225.519 24.9724C225.822 24.9724 226.064 25.0262 226.245 25.1338C226.428 25.2393 226.567 25.3706 226.662 25.5278C226.756 25.6849 226.824 25.8378 226.865 25.9863H226.917L227.35 23.3869H227.928L226.83 30H226.271L226.426 29.0797H226.355C226.262 29.2304 226.141 29.3854 225.99 29.5447C225.842 29.7019 225.659 29.8342 225.441 29.9419C225.224 30.0495 224.964 30.1033 224.663 30.1033ZM224.789 29.577C225.11 29.577 225.399 29.4898 225.658 29.3154C225.918 29.1389 226.135 28.8967 226.31 28.5889C226.486 28.2789 226.607 27.9237 226.671 27.5233C226.738 27.1272 226.737 26.7774 226.668 26.4739C226.599 26.1682 226.466 25.9293 226.268 25.7571C226.07 25.5827 225.808 25.4955 225.483 25.4955C225.154 25.4955 224.861 25.5859 224.605 25.7667C224.349 25.9454 224.137 26.1876 223.969 26.4933C223.803 26.799 223.688 27.1423 223.623 27.5233C223.561 27.9087 223.561 28.2563 223.623 28.5663C223.686 28.8763 223.813 29.1228 224.004 29.3058C224.198 29.4866 224.46 29.577 224.789 29.577ZM230.456 30.1033C229.993 30.1033 229.611 29.9957 229.31 29.7804C229.008 29.563 228.797 29.2627 228.677 28.8795C228.556 28.4942 228.538 28.0507 228.622 27.5492C228.706 27.0497 228.871 26.6063 229.119 26.2188C229.367 25.8292 229.672 25.5246 230.036 25.305C230.4 25.0833 230.795 24.9724 231.221 24.9724C231.49 24.9724 231.742 25.0219 231.977 25.1209C232.211 25.2178 232.41 25.3674 232.574 25.5698C232.74 25.77 232.855 26.0229 232.92 26.3286C232.984 26.6321 232.982 26.9916 232.913 27.4071L232.868 27.6912H228.993L229.074 27.1843H232.364C232.418 26.8657 232.403 26.5794 232.319 26.3254C232.235 26.0713 232.092 25.8701 231.89 25.7215C231.689 25.5708 231.441 25.4955 231.144 25.4955C230.84 25.4955 230.553 25.5805 230.281 25.7506C230.012 25.9207 229.784 26.1424 229.597 26.4158C229.412 26.687 229.292 26.9765 229.239 27.2844L229.174 27.6654C229.105 28.0852 229.114 28.4371 229.2 28.7213C229.286 29.0033 229.442 29.2164 229.668 29.3607C229.894 29.5049 230.184 29.577 230.537 29.577C230.773 29.577 230.988 29.5404 231.179 29.4672C231.371 29.394 231.538 29.2961 231.68 29.1734C231.822 29.0485 231.936 28.9118 232.022 28.7633L232.535 28.9409C232.426 29.1497 232.271 29.3424 232.07 29.5189C231.872 29.6954 231.637 29.8375 231.363 29.9451C231.092 30.0506 230.79 30.1033 230.456 30.1033ZM234.835 26.9001L234.322 30H233.747L234.574 25.0402H235.132L235.003 25.8184H235.055C235.21 25.5644 235.424 25.361 235.697 25.2081C235.973 25.0531 236.293 24.9756 236.656 24.9756C236.988 24.9756 237.268 25.0456 237.496 25.1855C237.726 25.3233 237.89 25.5267 237.987 25.7958C238.086 26.0649 238.103 26.3953 238.038 26.7871L237.499 30H236.924L237.454 26.8226C237.521 26.4179 237.462 26.0972 237.276 25.8604C237.093 25.6214 236.81 25.502 236.427 25.502C236.167 25.502 235.924 25.5579 235.701 25.6699C235.479 25.7818 235.292 25.9433 235.139 26.1542C234.986 26.363 234.885 26.6117 234.835 26.9001ZM242.31 23.077L238.871 30.9945H238.331L241.767 23.077H242.31ZM242.276 30L243.374 23.3869H243.977L242.97 29.4575H246.122L246.031 30H242.276ZM248.643 30.113C248.344 30.113 248.08 30.0549 247.852 29.9386C247.624 29.8203 247.454 29.6502 247.342 29.4285C247.232 29.2046 247.202 28.9333 247.252 28.6147C247.295 28.3693 247.377 28.1627 247.497 27.9948C247.62 27.8269 247.775 27.6891 247.962 27.5815C248.149 27.4717 248.365 27.3856 248.608 27.3231C248.851 27.2607 249.116 27.2133 249.402 27.1811C249.682 27.1466 249.921 27.1165 250.119 27.0906C250.317 27.0648 250.471 27.0239 250.581 26.9679C250.691 26.912 250.756 26.8216 250.778 26.6967L250.797 26.5805C250.853 26.2425 250.801 25.9766 250.642 25.7829C250.483 25.587 250.216 25.489 249.841 25.489C249.484 25.489 249.174 25.5687 248.911 25.728C248.651 25.8851 248.457 26.0692 248.33 26.2802L247.82 26.0832C247.975 25.8119 248.165 25.5956 248.392 25.4341C248.618 25.2705 248.86 25.1532 249.118 25.0822C249.376 25.009 249.631 24.9724 249.883 24.9724C250.073 24.9724 250.265 24.9972 250.461 25.0467C250.657 25.0962 250.833 25.1823 250.988 25.305C251.145 25.4255 251.26 25.5945 251.333 25.8119C251.409 26.0272 251.419 26.3006 251.365 26.6321L250.804 30H250.229L250.361 29.2153H250.326C250.235 29.3617 250.11 29.5038 249.951 29.6416C249.794 29.7793 249.606 29.8924 249.386 29.9806C249.166 30.0689 248.919 30.113 248.643 30.113ZM248.789 29.5867C249.094 29.5867 249.371 29.5189 249.619 29.3833C249.868 29.2476 250.073 29.0679 250.232 28.844C250.394 28.618 250.497 28.3693 250.542 28.0981L250.662 27.3813C250.614 27.4222 250.537 27.4588 250.429 27.491C250.324 27.5233 250.204 27.5524 250.071 27.5782C249.939 27.6019 249.807 27.6224 249.673 27.6396C249.542 27.6568 249.426 27.6719 249.325 27.6848C249.038 27.7192 248.789 27.773 248.576 27.8462C248.365 27.9194 248.196 28.0206 248.069 28.1498C247.942 28.2768 247.862 28.4404 247.83 28.6406C247.78 28.942 247.846 29.1755 248.027 29.3413C248.21 29.5049 248.464 29.5867 248.789 29.5867ZM253.421 26.9001L252.907 30H252.333L253.159 25.0402H253.718L253.589 25.8184H253.64C253.795 25.5644 254.009 25.361 254.283 25.2081C254.558 25.0531 254.878 24.9756 255.242 24.9756C255.573 24.9756 255.853 25.0456 256.081 25.1855C256.312 25.3233 256.475 25.5267 256.572 25.7958C256.671 26.0649 256.689 26.3953 256.624 26.7871L256.085 30H255.51L256.039 26.8226C256.106 26.4179 256.047 26.0972 255.862 25.8604C255.679 25.6214 255.396 25.502 255.013 25.502C254.752 25.502 254.51 25.5579 254.286 25.6699C254.064 25.7818 253.877 25.9433 253.724 26.1542C253.571 26.363 253.47 26.6117 253.421 26.9001ZM259.374 30.1033C258.967 30.1033 258.628 29.9957 258.357 29.7804C258.086 29.5652 257.896 29.2649 257.789 28.8795C257.681 28.4942 257.669 28.0454 257.753 27.533C257.839 27.0228 258 26.5761 258.234 26.193C258.471 25.8076 258.761 25.5084 259.103 25.2953C259.447 25.08 259.823 24.9724 260.23 24.9724C260.533 24.9724 260.776 25.0262 260.956 25.1338C261.139 25.2393 261.278 25.3706 261.373 25.5278C261.468 25.6849 261.536 25.8378 261.576 25.9863H261.628L262.061 23.3869H262.639L261.541 30H260.982L261.137 29.0797H261.066C260.974 29.2304 260.852 29.3854 260.701 29.5447C260.553 29.7019 260.37 29.8342 260.152 29.9419C259.935 30.0495 259.676 30.1033 259.374 30.1033ZM259.5 29.577C259.821 29.577 260.11 29.4898 260.369 29.3154C260.629 29.1389 260.847 28.8967 261.021 28.5889C261.198 28.2789 261.318 27.9237 261.383 27.5233C261.449 27.1272 261.448 26.7774 261.379 26.4739C261.311 26.1682 261.177 25.9293 260.979 25.7571C260.781 25.5827 260.519 25.4955 260.194 25.4955C259.865 25.4955 259.572 25.5859 259.316 25.7667C259.06 25.9454 258.848 26.1876 258.68 26.4933C258.514 26.799 258.399 27.1423 258.335 27.5233C258.272 27.9087 258.272 28.2563 258.335 28.5663C258.397 28.8763 258.524 29.1228 258.716 29.3058C258.909 29.4866 259.171 29.577 259.5 29.577ZM267.153 26.1284L266.601 26.2705C266.573 26.1219 266.521 25.9885 266.446 25.8701C266.373 25.7495 266.266 25.6548 266.126 25.5859C265.988 25.5149 265.808 25.4794 265.584 25.4794C265.248 25.4794 264.958 25.5612 264.715 25.7248C264.472 25.8862 264.33 26.0929 264.289 26.3447C264.254 26.5557 264.299 26.7268 264.421 26.8582C264.546 26.9895 264.755 27.0928 265.048 27.1681L265.771 27.3522C266.171 27.4555 266.457 27.617 266.627 27.8365C266.799 28.0561 266.858 28.3338 266.804 28.6696C266.757 28.9495 266.637 29.197 266.446 29.4123C266.256 29.6276 266.013 29.7966 265.716 29.9193C265.421 30.042 265.092 30.1033 264.728 30.1033C264.239 30.1033 263.855 29.9935 263.575 29.774C263.298 29.5544 263.149 29.2379 263.13 28.8246L263.708 28.6955C263.725 28.9882 263.825 29.21 264.008 29.3607C264.193 29.5113 264.454 29.5867 264.789 29.5867C265.173 29.5867 265.494 29.4995 265.755 29.3251C266.015 29.1508 266.165 28.9355 266.204 28.6793C266.24 28.477 266.203 28.3091 266.091 28.1756C265.981 28.0421 265.794 27.9431 265.529 27.8785L264.757 27.6848C264.342 27.5793 264.048 27.4146 263.876 27.1907C263.705 26.9647 263.648 26.6859 263.704 26.3544C263.75 26.081 263.864 25.841 264.047 25.6343C264.23 25.4277 264.461 25.2662 264.741 25.15C265.021 25.0316 265.326 24.9724 265.658 24.9724C266.114 24.9724 266.462 25.0757 266.701 25.2824C266.94 25.4869 267.091 25.7689 267.153 26.1284ZM269.761 30.1033C269.313 30.1033 268.944 29.9925 268.654 29.7707C268.363 29.549 268.16 29.2455 268.043 28.8602C267.929 28.4727 267.913 28.0335 267.995 27.5427C268.077 27.0433 268.241 26.6009 268.489 26.2156C268.737 25.8281 269.042 25.5246 269.406 25.305C269.772 25.0833 270.171 24.9724 270.604 24.9724C270.938 24.9724 271.228 25.037 271.476 25.1661C271.723 25.2931 271.915 25.4729 272.051 25.7054C272.186 25.9357 272.251 26.2048 272.244 26.5126H271.663C271.648 26.2263 271.544 25.9852 271.35 25.7893C271.158 25.5934 270.887 25.4955 270.536 25.4955C270.215 25.4955 269.918 25.5816 269.645 25.7538C269.372 25.9239 269.14 26.1618 268.951 26.4674C268.763 26.771 268.638 27.1229 268.573 27.5233C268.504 27.9259 268.511 28.2822 268.592 28.5921C268.674 28.9 268.821 29.1411 269.031 29.3154C269.245 29.4898 269.514 29.577 269.839 29.577C270.06 29.577 270.269 29.5361 270.465 29.4543C270.661 29.3703 270.834 29.2519 270.985 29.0991C271.136 28.9441 271.251 28.7622 271.331 28.5534H271.912C271.815 28.8548 271.662 29.1217 271.453 29.3542C271.247 29.5867 270.999 29.7697 270.711 29.9031C270.422 30.0366 270.106 30.1033 269.761 30.1033ZM274.271 30.113C273.971 30.113 273.708 30.0549 273.479 29.9386C273.251 29.8203 273.081 29.6502 272.969 29.4285C272.86 29.2046 272.829 28.9333 272.879 28.6147C272.922 28.3693 273.004 28.1627 273.124 27.9948C273.247 27.8269 273.402 27.6891 273.589 27.5815C273.777 27.4717 273.992 27.3856 274.235 27.3231C274.478 27.2607 274.743 27.2133 275.029 27.1811C275.309 27.1466 275.548 27.1165 275.746 27.0906C275.944 27.0648 276.098 27.0239 276.208 26.9679C276.318 26.912 276.383 26.8216 276.405 26.6967L276.424 26.5805C276.48 26.2425 276.429 25.9766 276.269 25.7829C276.11 25.587 275.843 25.489 275.469 25.489C275.111 25.489 274.801 25.5687 274.539 25.728C274.278 25.8851 274.084 26.0692 273.957 26.2802L273.447 26.0832C273.602 25.8119 273.793 25.5956 274.019 25.4341C274.245 25.2705 274.487 25.1532 274.745 25.0822C275.004 25.009 275.259 24.9724 275.511 24.9724C275.7 24.9724 275.893 24.9972 276.089 25.0467C276.284 25.0962 276.46 25.1823 276.615 25.305C276.772 25.4255 276.887 25.5945 276.96 25.8119C277.036 26.0272 277.047 26.3006 276.993 26.6321L276.431 30H275.856L275.988 29.2153H275.953C275.863 29.3617 275.738 29.5038 275.578 29.6416C275.421 29.7793 275.233 29.8924 275.013 29.9806C274.794 30.0689 274.546 30.113 274.271 30.113ZM274.416 29.5867C274.722 29.5867 274.998 29.5189 275.246 29.3833C275.495 29.2476 275.7 29.0679 275.859 28.844C276.021 28.618 276.124 28.3693 276.169 28.0981L276.289 27.3813C276.241 27.4222 276.164 27.4588 276.056 27.491C275.951 27.5233 275.831 27.5524 275.698 27.5782C275.567 27.6019 275.434 27.6224 275.301 27.6396C275.169 27.6568 275.053 27.6719 274.952 27.6848C274.666 27.7192 274.416 27.773 274.203 27.8462C273.992 27.9194 273.823 28.0206 273.696 28.1498C273.569 28.2768 273.489 28.4404 273.457 28.6406C273.407 28.942 273.473 29.1755 273.654 29.3413C273.837 29.5049 274.091 29.5867 274.416 29.5867ZM277.65 31.8599L278.793 25.0402H279.351L279.196 25.9863H279.264C279.355 25.8378 279.472 25.6849 279.616 25.5278C279.763 25.3706 279.945 25.2393 280.162 25.1338C280.382 25.0262 280.644 24.9724 280.95 24.9724C281.359 24.9724 281.698 25.079 281.967 25.2921C282.238 25.5052 282.428 25.8044 282.535 26.1897C282.645 26.5751 282.657 27.0228 282.571 27.533C282.487 28.0454 282.327 28.4942 282.09 28.8795C281.853 29.2649 281.563 29.5652 281.221 29.7804C280.881 29.9957 280.509 30.1033 280.104 30.1033C279.805 30.1033 279.562 30.0495 279.377 29.9419C279.194 29.8342 279.054 29.7019 278.958 29.5447C278.861 29.3854 278.791 29.2304 278.748 29.0797H278.696L278.231 31.8599H277.65ZM278.948 27.5233C278.883 27.9237 278.883 28.2789 278.948 28.5889C279.012 28.8967 279.143 29.1389 279.339 29.3154C279.534 29.4898 279.793 29.577 280.114 29.577C280.443 29.577 280.737 29.4866 280.995 29.3058C281.253 29.1228 281.469 28.8763 281.641 28.5663C281.813 28.2563 281.931 27.9087 281.996 27.5233C282.056 27.1423 282.054 26.799 281.99 26.4933C281.925 26.1876 281.796 25.9454 281.602 25.7667C281.408 25.5859 281.145 25.4955 280.811 25.4955C280.488 25.4955 280.197 25.5827 279.939 25.7571C279.683 25.9293 279.47 26.1682 279.3 26.4739C279.13 26.7774 279.012 27.1272 278.948 27.5233ZM285.413 30.1033C284.95 30.1033 284.568 29.9957 284.267 29.7804C283.965 29.563 283.755 29.2627 283.634 28.8795C283.513 28.4942 283.495 28.0507 283.579 27.5492C283.663 27.0497 283.829 26.6063 284.076 26.2188C284.324 25.8292 284.63 25.5246 284.993 25.305C285.357 25.0833 285.752 24.9724 286.178 24.9724C286.448 24.9724 286.699 25.0219 286.934 25.1209C287.169 25.2178 287.368 25.3674 287.531 25.5698C287.697 25.77 287.812 26.0229 287.877 26.3286C287.942 26.6321 287.939 26.9916 287.87 27.4071L287.825 27.6912H283.95L284.031 27.1843H287.322C287.375 26.8657 287.36 26.5794 287.276 26.3254C287.192 26.0713 287.049 25.8701 286.847 25.7215C286.647 25.5708 286.398 25.4955 286.101 25.4955C285.797 25.4955 285.51 25.5805 285.239 25.7506C284.97 25.9207 284.742 26.1424 284.554 26.4158C284.369 26.687 284.25 26.9765 284.196 27.2844L284.131 27.6654C284.062 28.0852 284.071 28.4371 284.157 28.7213C284.243 29.0033 284.399 29.2164 284.625 29.3607C284.851 29.5049 285.141 29.577 285.494 29.577C285.731 29.577 285.945 29.5404 286.136 29.4672C286.328 29.394 286.495 29.2961 286.637 29.1734C286.779 29.0485 286.893 28.9118 286.979 28.7633L287.493 28.9409C287.383 29.1497 287.228 29.3424 287.028 29.5189C286.83 29.6954 286.594 29.8375 286.321 29.9451C286.049 30.0506 285.747 30.1033 285.413 30.1033Z" fill="black"/>
<line x1="55.7079" y1="68.5453" x2="90.7079" y2="84.5453" stroke="#D0EAF8"/>
<line x1="159" y1="203" x2="159" y2="230" stroke="#B5DFF5"/>
<line x1="231.636" y1="146.519" x2="277.636" y2="159.519" stroke="#96D2F2"/>
<line x1="231.422" y1="82.5061" x2="269.422" y2="76.5061" stroke="#7EC8F0"/>
<line x1="207.098" y1="61.7024" x2="227.098" y2="34.7024" stroke="#65BEEE"/>
</svg>
